#include <stdint.h>
extern const uint8_t midifile2[] = {
0x4d,0x54,0x68,0x64,0x00,0x00,0x00,0x06,0x00,0x00,0x00,0x01,0x00,0x2b,0x4d,0x54,
0x72,0x6b,0x00,0x00,0x0c,0x2e,0x00,0xff,0x51,0x03,0x07,0xa1,0x20,0x00,0xc0,0x00,
0x00,0x90,0x44,0x33,0x00,0x90,0x4a,0x34,0x00,0x90,0x4f,0x37,0x00,0x90,0x53,0x24,
0x00,0x90,0x57,0x2d,0x00,0x90,0x59,0x2d,0x01,0x90,0x28,0x45,0x00,0x90,0x4c,0x3e,
0x00,0x90,0x5a,0x23,0x00,0x90,0x5c,0x21,0x00,0x90,0x5d,0x22,0x00,0x90,0x5f,0x25,
0x00,0x90,0x60,0x1a,0x00,0x90,0x61,0x1f,0x00,0x90,0x62,0x19,0x00,0x90,0x67,0x15,
0x01,0x90,0x25,0x4f,0x00,0x80,0x28,0x40,0x00,0x90,0x4e,0x39,0x00,0x90,0x51,0x2a,
0x00,0x90,0x64,0x1c,0x01,0x90,0x23,0x4c,0x00,0x80,0x25,0x40,0x00,0x90,0x3b,0x37,
0x00,0x90,0x3f,0x2b,0x00,0x90,0x43,0x2e,0x00,0x80,0x44,0x40,0x00,0x90,0x55,0x1e,
0x00,0x90,0x5e,0x1a,0x01,0x90,0x21,0x4b,0x00,0x80,0x23,0x40,0x00,0x90,0x2b,0x42,
0x00,0x90,0x36,0x3b,0x00,0x90,0x49,0x2b,0x00,0x80,0x4a,0x40,0x01,0x90,0x1f,0x4d,
0x00,0x80,0x21,0x40,0x00,0x80,0x2b,0x40,0x00,0x90,0x2d,0x4a,0x00,0x80,0x3b,0x40,
0x00,0x90,0x3c,0x39,0x00,0x90,0x46,0x31,0x00,0x90,0x4b,0x2d,0x00,0x80,0x4e,0x40,
0x00,0x90,0x50,0x2a,0x00,0x80,0x51,0x40,0x01,0x90,0x1e,0x4a,0x00,0x80,0x1f,0x40,
0x00,0x90,0x2c,0x4d,0x00,0x80,0x2d,0x40,0x00,0x80,0x36,0x40,0x00,0x80,0x3f,0x40,
0x00,0x90,0x40,0x1d,0x00,0x80,0x43,0x40,0x00,0x80,0x49,0x40,0x00,0x80,0x4f,0x40,
0x00,0x80,0x60,0x40,0x01,0x90,0x1c,0x4a,0x00,0x80,0x1e,0x40,0x00,0x90,0x2a,0x51,
0x00,0x80,0x2c,0x40,0x00,0x90,0x38,0x28,0x00,0x80,0x46,0x40,0x00,0x90,0x47,0x25,
0x00,0x90,0x49,0x1e,0x00,0x90,0x4f,0x1a,0x00,0x80,0x53,0x40,0x01,0x80,0x1c,0x40,
0x00,0x90,0x25,0x50,0x00,0x80,0x2a,0x40,0x00,0x80,0x40,0x40,0x00,0x80,0x4c,0x40,
0x00,0x90,0x56,0x1c,0x00,0x80,0x5e,0x40,0x01,0x80,0x25,0x40,0x00,0x90,0x27,0x4a,
0x00,0x80,0x38,0x40,0x00,0x90,0x3b,0x3f,0x00,0x80,0x3c,0x40,0x00,0x90,0x43,0x1e,
0x00,0x90,0x46,0x26,0x00,0x80,0x47,0x40,0x00,0x80,0x50,0x40,0x00,0x90,0x53,0x1d,
0x00,0x90,0x60,0x14,0x00,0x80,0x67,0x40,0x01,0x90,0x18,0x4a,0x00,0x80,0x27,0x40,
0x00,0x90,0x41,0x21,0x00,0x90,0x4e,0x1a,0x00,0x80,0x55,0x40,0x00,0x80,0x59,0x40,
0x01,0x80,0x18,0x40,0x00,0x90,0x22,0x4c,0x00,0x80,0x43,0x40,0x00,0x90,0x45,0x32,
0x00,0x80,0x46,0x40,0x00,0x90,0x52,0x19,0x00,0x90,0x55,0x1e,0x00,0x80,0x57,0x40,
0x00,0x90,0x58,0x18,0x01,0x80,0x22,0x40,0x00,0x90,0x28,0x47,0x00,0x90,0x40,0x31,
0x00,0x80,0x41,0x40,0x00,0x80,0x4f,0x40,0x00,0x80,0x56,0x40,0x00,0x90,0x59,0x11,
0x00,0x80,0x5c,0x40,0x00,0x80,0x64,0x40,0x01,0x90,0x44,0x33,0x00,0x80,0x45,0x40,
0x00,0x90,0x46,0x34,0x00,0x80,0x49,0x40,0x00,0x90,0x4d,0x19,0x00,0x80,0x4e,0x40,
0x00,0x80,0x53,0x40,0x00,0x90,0x56,0x1a,0x01,0x80,0x28,0x40,0x00,0x80,0x3b,0x40,
0x00,0x90,0x41,0x36,0x00,0x90,0x48,0x29,0x00,0x90,0x53,0x1a,0x00,0x80,0x58,0x40,
0x00,0x80,0x5a,0x40,0x00,0x90,0x5c,0x0b,0x00,0x80,0x62,0x40,0x01,0x90,0x2b,0x45,
0x00,0x80,0x40,0x40,0x00,0x80,0x44,0x40,0x00,0x80,0x4b,0x40,0x00,0x90,0x4f,0x14,
0x00,0x90,0x51,0x0a,0x00,0x90,0x58,0x12,0x00,0x80,0x61,0x40,0x01,0x90,0x27,0x4c,
0x00,0x80,0x2b,0x40,0x00,0x90,0x3e,0x32,0x00,0x80,0x48,0x40,0x00,0x90,0x4b,0x1f,
0x00,0x80,0x52,0x40,0x00,0x80,0x56,0x40,0x00,0x80,0x59,0x40,0x01,0x90,0x23,0x56,
0x00,0x80,0x27,0x40,0x00,0x80,0x41,0x40,0x00,0x90,0x49,0x25,0x00,0x80,0x55,0x40,
0x00,0x90,0x56,0x13,0x00,0x80,0x5d,0x40,0x00,0x80,0x5f,0x40,0x01,0x90,0x22,0x55,
0x00,0x80,0x23,0x40,0x00,0x90,0x34,0x3b,0x00,0x90,0x3d,0x2f,0x00,0x80,0x3e,0x40,
0x00,0x90,0x44,0x28,0x00,0x80,0x46,0x40,0x00,0x80,0x4d,0x40,0x00,0x80,0x4f,0x40,
0x00,0x90,0x5d,0x12,0x01,0x90,0x4c,0x15,0x00,0x90,0x4f,0x14,0x00,0x80,0x51,0x40,
0x00,0x80,0x5c,0x40,0x00,0x80,0x60,0x40,0x01,0x80,0x22,0x40,0x00,0x90,0x24,0x52,
0x00,0x80,0x34,0x40,0x00,0x90,0x41,0x1f,0x00,0x80,0x44,0x40,0x00,0x80,0x49,0x40,
0x00,0x90,0x4a,0x1b,0x00,0x80,0x4b,0x40,0x00,0x80,0x56,0x40,0x00,0x80,0x58,0x40,
0x01,0x90,0x3a,0x33,0x00,0x80,0x3d,0x40,0x00,0x80,0x53,0x40,0x00,0x80,0x5d,0x40,
0x01,0x90,0x23,0x50,0x00,0x80,0x24,0x40,0x00,0x90,0x40,0x24,0x00,0x80,0x41,0x40,
0x00,0x90,0x43,0x27,0x00,0x80,0x4c,0x40,0x01,0x90,0x21,0x4b,0x00,0x80,0x23,0x40,
0x00,0x80,0x3a,0x40,0x00,0x80,0x4a,0x40,0x00,0x90,0x4b,0x13,0x01,0x80,0x40,0x40,
0x00,0x80,0x43,0x40,0x00,0x90,0x44,0x2c,0x00,0x80,0x4f,0x40,0x01,0x80,0x21,0x40,
0x00,0x90,0x22,0x53,0x00,0x90,0x42,0x20,0x00,0x90,0x62,0x0d,0x01,0x80,0x22,0x40,
0x00,0x90,0x24,0x56,0x01,0x90,0x21,0x42,0x00,0x80,0x24,0x40,0x00,0x90,0x27,0x46,
0x00,0x80,0x42,0x40,0x00,0x80,0x4b,0x40,0x00,0x90,0x5e,0x0d,0x01,0x90,0x20,0x41,
0x00,0x80,0x21,0x40,0x00,0x80,0x27,0x40,0x00,0x90,0x39,0x2d,0x00,0x90,0x53,0x20,
0x00,0x90,0x60,0x13,0x00,0x80,0x62,0x40,0x01,0x80,0x20,0x40,0x00,0x90,0x23,0x53,
0x00,0x90,0x48,0x14,0x00,0x90,0x4e,0x15,0x00,0x90,0x51,0x15,0x00,0x90,0x5d,0x15,
0x01,0x90,0x22,0x59,0x00,0x80,0x23,0x40,0x00,0x80,0x39,0x40,0x00,0x90,0x4a,0x12,
0x00,0x90,0x59,0x0c,0x01,0x90,0x21,0x5a,0x00,0x80,0x22,0x40,0x00,0x90,0x35,0x20,
0x00,0x90,0x4b,0x15,0x00,0x90,0x58,0x1b,0x00,0x90,0x5b,0x0c,0x00,0x90,0x5c,0x15,
0x01,0x90,0x20,0x58,0x00,0x80,0x21,0x40,0x00,0x80,0x44,0x40,0x00,0x80,0x48,0x40,
0x00,0x90,0x4d,0x19,0x00,0x80,0x4e,0x40,0x00,0x80,0x5d,0x40,0x00,0x80,0x5e,0x40,
0x01,0x90,0x1f,0x54,0x00,0x80,0x20,0x40,0x00,0x80,0x35,0x40,0x00,0x90,0x37,0x2d,
0x00,0x80,0x51,0x40,0x00,0x90,0x55,0x1d,0x00,0x90,0x57,0x1f,0x00,0x80,0x59,0x40,
0x00,0x90,0x5d,0x1a,0x00,0x90,0x62,0x0e,0x01,0x90,0x1e,0x4b,0x00,0x80,0x1f,0x40,
0x00,0x90,0x2f,0x41,0x00,0x90,0x48,0x18,0x00,0x80,0x4b,0x40,0x00,0x90,0x4e,0x1c,
0x00,0x80,0x5c,0x40,0x01,0x80,0x1e,0x40,0x00,0x90,0x24,0x47,0x00,0x80,0x2f,0x40,
0x00,0x80,0x37,0x40,0x00,0x80,0x4a,0x40,0x00,0x90,0x4b,0x21,0x00,0x90,0x56,0x1a,
0x00,0x90,0x5c,0x1d,0x00,0x90,0x5e,0x14,0x01,0x80,0x24,0x40,0x00,0x90,0x25,0x52,
0x00,0x90,0x3f,0x2a,0x00,0x90,0x44,0x29,0x00,0x80,0x4d,0x40,0x00,0x90,0x54,0x1d,
0x00,0x80,0x5b,0x40,0x00,0x80,0x62,0x40,0x01,0x90,0x23,0x50,0x00,0x80,0x25,0x40,
0x00,0x90,0x3a,0x35,0x00,0x80,0x48,0x40,0x00,0x90,0x51,0x11,0x00,0x80,0x53,0x40,
0x00,0x80,0x5d,0x40,0x00,0x90,0x66,0x0c,0x01,0x80,0x23,0x40,0x00,0x90,0x24,0x4e,
0x00,0x90,0x4a,0x25,0x00,0x80,0x4b,0x40,0x00,0x80,0x57,0x40,0x00,0x90,0x5b,0x12,
0x01,0x80,0x24,0x40,0x00,0x90,0x27,0x4f,0x00,0x90,0x48,0x24,0x00,0x90,0x4d,0x1a,
0x00,0x90,0x57,0x1c,0x01,0x80,0x27,0x40,0x00,0x90,0x2c,0x49,0x00,0x80,0x3a,0x40,
0x00,0x80,0x3f,0x40,0x00,0x80,0x44,0x40,0x00,0x90,0x50,0x19,0x00,0x80,0x54,0x40,
0x00,0x80,0x56,0x40,0x00,0x80,0x5e,0x40,0x01,0x90,0x1b,0x47,0x00,0x90,0x2b,0x49,
0x00,0x80,0x2c,0x40,0x00,0x90,0x3d,0x25,0x00,0x90,0x42,0x30,0x00,0x80,0x4e,0x40,
0x00,0x90,0x4f,0x1f,0x00,0x80,0x51,0x40,0x00,0x90,0x5e,0x09,0x00,0x90,0x5f,0x11,
0x01,0x80,0x1b,0x40,0x00,0x90,0x1f,0x51,0x00,0x80,0x2b,0x40,0x00,0x90,0x38,0x2b,
0x00,0x80,0x48,0x40,0x00,0x90,0x53,0x1b,0x00,0x80,0x55,0x40,0x00,0x80,0x57,0x40,
0x00,0x80,0x66,0x40,0x01,0x80,0x1f,0x40,0x00,0x90,0x20,0x51,0x00,0x80,0x3d,0x40,
0x00,0x90,0x3f,0x1a,0x00,0x80,0x4d,0x40,0x00,0x80,0x5b,0x40,0x01,0x90,0x1f,0x4b,
0x00,0x80,0x20,0x40,0x00,0x90,0x30,0x33,0x00,0x80,0x38,0x40,0x00,0x90,0x39,0x25,
0x00,0x80,0x42,0x40,0x00,0x80,0x4a,0x40,0x00,0x90,0x4c,0x1b,0x00,0x80,0x50,0x40,
0x00,0x80,0x5e,0x40,0x00,0x80,0x5f,0x40,0x01,0x90,0x1d,0x47,0x00,0x80,0x1f,0x40,
0x00,0x90,0x41,0x20,0x01,0x90,0x1c,0x4e,0x00,0x80,0x1d,0x40,0x00,0x90,0x2f,0x2e,
0x00,0x80,0x30,0x40,0x00,0x80,0x3f,0x40,0x00,0x80,0x4f,0x40,0x00,0x80,0x53,0x40,
0x00,0x90,0x56,0x19,0x00,0x90,0x59,0x14,0x00,0x90,0x5b,0x12,0x00,0x90,0x61,0x10,
0x01,0x80,0x39,0x40,0x00,0x80,0x41,0x40,0x00,0x90,0x5e,0x19,0x00,0x90,0x5f,0x0b,
0x01,0x80,0x1c,0x40,0x00,0x90,0x22,0x4f,0x00,0x80,0x2f,0x40,0x00,0x90,0x36,0x33,
0x00,0x80,0x4c,0x40,0x00,0x90,0x4f,0x1e,0x00,0x90,0x53,0x13,0x00,0x80,0x58,0x40,
0x01,0x80,0x22,0x40,0x00,0x90,0x24,0x46,0x00,0x90,0x3f,0x23,0x00,0x90,0x4a,0x21,
0x00,0x90,0x4c,0x2b,0x00,0x90,0x55,0x19,0x00,0x80,0x5c,0x40,0x00,0x90,0x63,0x0c,
0x01,0x80,0x56,0x40,0x00,0x90,0x57,0x10,0x00,0x80,0x60,0x40,0x01,0x90,0x1f,0x51,
0x00,0x80,0x24,0x40,0x00,0x80,0x36,0x40,0x00,0x80,0x3f,0x40,0x00,0x90,0x40,0x28,
0x00,0x80,0x4a,0x40,0x00,0x90,0x4e,0x1d,0x00,0x80,0x4f,0x40,0x00,0x80,0x53,0x40,
0x00,0x80,0x59,0x40,0x00,0x80,0x5f,0x40,0x00,0x80,0x61,0x40,0x01,0x90,0x1d,0x4b,
0x00,0x80,0x1f,0x40,0x00,0x90,0x27,0x46,0x00,0x90,0x45,0x27,0x00,0x90,0x4a,0x20,
0x00,0x80,0x4c,0x40,0x00,0x90,0x59,0x16,0x01,0x90,0x18,0x45,0x00,0x80,0x1d,0x40,
0x00,0x80,0x27,0x40,0x00,0x80,0x40,0x40,0x00,0x90,0x41,0x34,0x00,0x90,0x48,0x23,
0x00,0x80,0x4e,0x40,0x00,0x80,0x57,0x40,0x00,0x90,0x58,0x13,0x00,0x90,0x5a,0x15,
0x00,0x80,0x5b,0x40,0x00,0x80,0x63,0x40,0x01,0x80,0x18,0x40,0x00,0x90,0x1c,0x4a,
0x00,0x90,0x35,0x38,0x00,0x80,0x4a,0x40,0x00,0x90,0x4b,0x17,0x00,0x90,0x50,0x1f,
0x01,0x80,0x1c,0x40,0x00,0x90,0x1d,0x46,0x00,0x80,0x41,0x40,0x01,0x90,0x19,0x4a,
0x00,0x80,0x1d,0x40,0x00,0x80,0x35,0x40,0x00,0x90,0x3b,0x24,0x00,0x90,0x3f,0x33,
0x00,0x80,0x45,0x40,0x00,0x90,0x46,0x21,0x00,0x80,0x55,0x40,0x00,0x90,0x5f,0x15,
0x01,0x80,0x19,0x40,0x00,0x90,0x27,0x4d,0x00,0x90,0x44,0x25,0x00,0x80,0x48,0x40,
0x00,0x80,0x58,0x40,0x01,0x80,0x27,0x40,0x00,0x90,0x2b,0x43,0x00,0x90,0x3a,0x1f,
0x00,0x80,0x3f,0x40,0x00,0x80,0x46,0x40,0x00,0x80,0x4b,0x40,0x00,0x80,0x50,0x40,
0x00,0x90,0x53,0x1c,0x00,0x80,0x5e,0x40,0x01,0x80,0x2b,0x40,0x00,0x80,0x3b,0x40,
0x00,0x90,0x43,0x28,0x00,0x80,0x44,0x40,0x00,0x90,0x58,0x15,0x00,0x80,0x5f,0x40,
0x01,0x90,0x1f,0x4a,0x00,0x80,0x3a,0x40,0x00,0x90,0x3b,0x2a,0x00,0x90,0x40,0x21,
0x00,0x90,0x4e,0x16,0x00,0x80,0x59,0x40,0x01,0x90,0x1e,0x53,0x00,0x80,0x1f,0x40,
0x00,0x90,0x32,0x2d,0x00,0x90,0x49,0x18,0x00,0x80,0x53,0x40,0x01,0x90,0x1d,0x5a,
0x00,0x80,0x1e,0x40,0x00,0x80,0x3b,0x40,0x00,0x90,0x53,0x18,0x00,0x80,0x58,0x40,
0x01,0x80,0x32,0x40,0x00,0x80,0x40,0x40,0x00,0x80,0x43,0x40,0x00,0x90,0x44,0x28,
0x00,0x90,0x4a,0x28,0x00,0x90,0x4d,0x1c,0x00,0x80,0x4e,0x40,0x00,0x90,0x54,0x1e,
0x01,0x80,0x1d,0x40,0x00,0x90,0x1e,0x55,0x00,0x90,0x48,0x26,0x00,0x80,0x49,0x40,
0x01,0x80,0x1e,0x40,0x00,0x90,0x21,0x46,0x00,0x90,0x39,0x2a,0x00,0x90,0x3f,0x26,
0x00,0x80,0x5a,0x40,0x00,0x90,0x5c,0x11,0x00,0x90,0x5e,0x13,0x01,0x80,0x21,0x40,
0x00,0x90,0x24,0x42,0x00,0x80,0x44,0x40,0x00,0x80,0x4d,0x40,0x00,0x90,0x4e,0x1c,
0x00,0x80,0x53,0x40,0x01,0x80,0x24,0x40,0x00,0x90,0x29,0x46,0x00,0x80,0x39,0x40,
0x00,0x90,0x3c,0x29,0x00,0x80,0x48,0x40,0x00,0x80,0x4a,0x40,0x01,0x80,0x29,0x40,
0x00,0x90,0x35,0x45,0x00,0x80,0x5c,0x40,0x01,0x90,0x1e,0x4a,0x00,0x80,0x3c,0x40,
0x00,0x90,0x3d,0x21,0x00,0x80,0x3f,0x40,0x01,0x80,0x1e,0x40,0x00,0x90,0x22,0x4f,
0x00,0x90,0x30,0x3a,0x00,0x90,0x45,0x23,0x00,0x90,0x49,0x25,0x00,0x90,0x4f,0x16,
0x00,0x90,0x5f,0x1b,0x00,0x90,0x64,0x09,0x01,0x90,0x20,0x47,0x00,0x80,0x22,0x40,
0x00,0x80,0x35,0x40,0x00,0x80,0x3d,0x40,0x00,0x90,0x3e,0x27,0x00,0x80,0x5e,0x40,
0x01,0x80,0x20,0x40,0x00,0x80,0x30,0x40,0x00,0x80,0x45,0x40,0x00,0x90,0x4c,0x1a,
0x00,0x80,0x4e,0x40,0x00,0x90,0x53,0x15,0x01,0x90,0x26,0x3a,0x00,0x80,0x3e,0x40,
0x00,0x80,0x49,0x40,0x00,0x80,0x4f,0x40,0x00,0x90,0x5d,0x11,0x00,0x80,0x5f,0x40,
0x00,0x80,0x64,0x40,0x01,0x90,0x3a,0x32,0x00,0x90,0x42,0x1f,0x00,0x90,0x47,0x29,
0x00,0x90,0x51,0x1a,0x00,0x80,0x54,0x40,0x00,0x90,0x5c,0x17,0x01,0x80,0x26,0x40,
0x00,0x80,0x4c,0x40,0x00,0x90,0x4d,0x1e,0x00,0x90,0x54,0x16,0x01,0x80,0x3a,0x40,
0x00,0x90,0x3b,0x2a,0x00,0x80,0x42,0x40,0x00,0x90,0x44,0x21,0x00,0x90,0x58,0x10,
0x01,0x90,0x23,0x4a,0x00,0x80,0x47,0x40,0x00,0x80,0x4d,0x40,0x00,0x80,0x5c,0x40,
0x01,0x90,0x22,0x44,0x00,0x80,0x23,0x40,0x00,0x90,0x4b,0x25,0x00,0x80,0x53,0x40,
0x00,0x90,0x55,0x12,0x01,0x80,0x3b,0x40,0x00,0x80,0x44,0x40,0x00,0x80,0x58,0x40,
0x00,0x80,0x5d,0x40,0x01,0x80,0x22,0x40,0x00,0x90,0x33,0x39,0x00,0x90,0x4e,0x19,
0x00,0x90,0x53,0x15,0x00,0x80,0x54,0x40,0x01,0x90,0x1f,0x47,0x01,0x90,0x3e,0x1f,
0x00,0x90,0x48,0x20,0x00,0x80,0x4b,0x40,0x00,0x90,0x4c,0x18,0x01,0x90,0x1e,0x44,
0x00,0x80,0x1f,0x40,0x00,0x80,0x33,0x40,0x00,0x90,0x42,0x26,0x00,0x80,0x51,0x40,
0x00,0x90,0x5b,0x10,0x00,0x90,0x5d,0x0f,0x01,0x90,0x1c,0x48,0x00,0x80,0x1e,0x40,
0x00,0x80,0x3e,0x40,0x00,0x80,0x48,0x40,0x00,0x80,0x53,0x40,0x00,0x90,0x54,0x12,
0x00,0x90,0x56,0x12,0x01,0x80,0x1c,0x40,0x00,0x90,0x1d,0x4d,0x00,0x90,0x47,0x1e,
0x00,0x80,0x55,0x40,0x01,0x90,0x30,0x3f,0x00,0x90,0x3d,0x25,0x00,0x90,0x41,0x24,
0x00,0x80,0x42,0x40,0x00,0x90,0x44,0x31,0x00,0x90,0x4f,0x1c,0x00,0x80,0x5d,0x40,
0x01,0x90,0x1c,0x3e,0x00,0x80,0x1d,0x40,0x00,0x80,0x47,0x40,0x00,0x90,0x52,0x0f,
0x00,0x80,0x56,0x40,0x00,0x80,0x5b,0x40,0x01,0x80,0x30,0x40,0x00,0x90,0x40,0x29,
0x00,0x80,0x41,0x40,0x00,0x80,0x4c,0x40,0x00,0x80,0x4e,0x40,0x01,0x80,0x1c,0x40,
0x00,0x90,0x4b,0x14,0x00,0x80,0x4f,0x40,0x01,0x90,0x25,0x40,0x00,0x80,0x44,0x40,
0x00,0x90,0x45,0x1a,0x00,0x90,0x4d,0x10,0x00,0x80,0x54,0x40,0x00,0x90,0x56,0x0b,
0x01,0x90,0x34,0x2a,0x00,0x90,0x3c,0x24,0x00,0x80,0x3d,0x40,0x00,0x80,0x40,0x40,
0x00,0x90,0x41,0x23,0x01,0x80,0x25,0x40,0x00,0x90,0x44,0x19,0x00,0x80,0x52,0x40,
0x00,0x90,0x54,0x09,0x01,0x90,0x2c,0x33,0x00,0x80,0x45,0x40,0x00,0x80,0x4d,0x40,
0x01,0x80,0x34,0x40,0x00,0x80,0x56,0x40,0x01,0x90,0x18,0x41,0x00,0x80,0x2c,0x40,
0x00,0x90,0x33,0x34,0x00,0x80,0x41,0x40,0x00,0x90,0x42,0x1d,0x00,0x80,0x44,0x40,
0x00,0x90,0x47,0x22,0x00,0x90,0x4a,0x1d,0x00,0x80,0x4b,0x40,0x00,0x90,0x4f,0x19,
0x01,0x80,0x18,0x40,0x00,0x90,0x23,0x4a,0x00,0x80,0x3c,0x40,0x01,0x80,0x33,0x40,
0x00,0x90,0x3a,0x1f,0x00,0x90,0x4c,0x16,0x01,0x80,0x23,0x40,0x00,0x80,0x47,0x40,
0x00,0x80,0x4a,0x40,0x00,0x80,0x4f,0x40,0x00,0x80,0x54,0x40,0x01,0x80,0x3a,0x40,
0x00,0x90,0x3c,0x26,0x00,0x90,0x40,0x21,0x00,0x80,0x42,0x40,0x00,0x90,0x4d,0x13,
0x01,0x90,0x1d,0x43,0x00,0x90,0x2c,0x46,0x00,0x90,0x35,0x3c,0x00,0x80,0x4c,0x40,
0x01,0x90,0x1c,0x48,0x00,0x80,0x1d,0x40,0x00,0x80,0x3c,0x40,0x00,0x80,0x40,0x40,
0x00,0x90,0x42,0x1b,0x01,0x80,0x1c,0x40,0x00,0x90,0x1d,0x4d,0x00,0x80,0x35,0x40,
0x00,0x90,0x45,0x0f,0x00,0x90,0x48,0x0f,0x00,0x80,0x4d,0x40,0x01,0x80,0x1d,0x40,
0x00,0x90,0x1e,0x4c,0x00,0x80,0x2c,0x40,0x00,0x90,0x37,0x2b,0x00,0x90,0x4d,0x1c,
0x01,0x80,0x1e,0x40,0x00,0x90,0x22,0x4b,0x00,0x80,0x42,0x40,0x01,0x80,0x22,0x40,
0x00,0x90,0x25,0x41,0x00,0x80,0x37,0x40,0x00,0x90,0x41,0x2d,0x00,0x80,0x48,0x40,
0x01,0x80,0x25,0x40,0x00,0x90,0x36,0x29,0x00,0x80,0x45,0x40,0x01,0x90,0x25,0x45,
0x00,0x90,0x46,0x25,0x00,0x80,0x4d,0x40,0x00,0x90,0x4e,0x12,0x00,0x90,0x50,0x18,
0x01,0x90,0x1f,0x41,0x00,0x80,0x25,0x40,0x00,0x80,0x36,0x40,0x00,0x90,0x37,0x2e,
0x00,0x80,0x41,0x40,0x00,0x90,0x56,0x11,0x01,0x80,0x1f,0x40,0x00,0x90,0x41,0x24,
0x00,0x90,0x49,0x13,0x01,0x90,0x22,0x41,0x00,0x80,0x37,0x40,0x00,0x80,0x46,0x40,
0x00,0x90,0x47,0x1d,0x00,0x80,0x4e,0x40,0x00,0x90,0x4f,0x0f,0x00,0x80,0x50,0x40,
0x01,0x80,0x22,0x40,0x00,0x90,0x4c,0x12,0x01,0x90,0x20,0x42,0x00,0x90,0x3c,0x1f,
0x00,0x80,0x41,0x40,0x00,0x90,0x51,0x13,0x00,0x90,0x58,0x14,0x01,0x80,0x20,0x40,
0x00,0x90,0x44,0x15,0x00,0x80,0x47,0x40,0x01,0x90,0x1a,0x42,0x00,0x80,0x49,0x40,
0x00,0x80,0x4f,0x40,0x01,0x80,0x1a,0x40,0x00,0x90,0x1d,0x42,0x00,0x80,0x3c,0x40,
0x00,0x80,0x4c,0x40,0x00,0x80,0x51,0x40,0x00,0x80,0x56,0x40,0x00,0x80,0x58,0x40,
0x01,0x80,0x1d,0x40,0x00,0x90,0x30,0x33,0x00,0x90,0x3b,0x24,0x00,0x90,0x42,0x17,
0x01,0x80,0x44,0x40,0x00,0x90,0x48,0x15,0x01,0x80,0x30,0x40,0x00,0x90,0x36,0x2b,
0x01,0x80,0x42,0x40,0x01,0x80,0x36,0x40,0x00,0x80,0x3b,0x40,0x00,0x90,0x3c,0x21,
0x00,0x90,0x45,0x17,0x01,0x80,0x48,0x40,0x01,0x90,0x27,0x42,0x00,0x80,0x3c,0x40,
0x01,0x90,0x23,0x45,0x00,0x80,0x27,0x40,0x00,0x90,0x37,0x24,0x00,0x80,0x45,0x40,
0x01,0x80,0x23,0x40,0x02,0x90,0x1d,0x42,0x00,0x80,0x37,0x40,0x01,0x80,0x1d,0x40,
0x03,0x90,0x22,0x49,0x01,0x90,0x35,0x20,0x01,0x90,0x21,0x35,0x00,0x80,0x22,0x40,
0x01,0x80,0x35,0x40,0x01,0x80,0x21,0x40,0x02,0x90,0x29,0x31,0x02,0x80,0x29,0x40,
0x01,0x90,0x1d,0x40,0x02,0x80,0x1d,0x40,0x01,0x90,0x33,0x21,0x03,0x80,0x33,0x40,
0x01,0x90,0x37,0x27,0x02,0x80,0x37,0x40,0x02,0x90,0x1e,0x32,0x02,0x80,0x1e,0x40,
0x0c,0x90,0x33,0x1a,0x03,0x80,0x33,0x40,0x03,0x90,0x38,0x18,0x01,0x90,0x1d,0x2d,
0x02,0x80,0x1d,0x40,0x04,0x90,0x23,0x2f,0x00,0x80,0x38,0x40,0x03,0x80,0x23,0x40,
0x00,0x90,0x38,0x0f,0x03,0x80,0x38,0x40,0x01,0x90,0x1e,0x29,0x02,0x80,0x1e,0x40,
0x0f,0x90,0x1e,0x1e,0x02,0x80,0x1e,0x40,0x06,0x90,0x3a,0x0e,0x03,0x80,0x3a,0x40,
0x00,0xff,0x2f,0x00,
};
