#include <stdint.h>
extern const uint8_t midifile[] = {
0x4d,0x54,0x68,0x64,0x00,0x00,0x00,0x06,0x00,0x01,0x00,0x03,0x01,0x80,0x4d,0x54,
0x72,0x6b,0x00,0x00,0x00,0x15,0x00,0xff,0x58,0x04,0x04,0x02,0x18,0x08,0x00,0xff,
0x51,0x03,0x07,0xa1,0x20,0x83,0xbd,0x40,0xff,0x2f,0x00,0x4d,0x54,0x72,0x6b,0x00,
0x00,0x29,0xf9,0x00,0xff,0x03,0x09,0x41,0x2e,0x50,0x49,0x41,0x4e,0x4f,0x20,0x31,
0x8c,0x00,0xc0,0x00,0x00,0xb0,0x07,0x7f,0x00,0x90,0x58,0x2c,0x28,0x80,0x58,0x40,
0x08,0xb0,0x40,0x7f,0x04,0x90,0x57,0x2f,0x34,0x80,0x57,0x40,0x14,0x90,0x56,0x2c,
0x2e,0x80,0x56,0x40,0x0e,0x90,0x55,0x29,0x00,0xb0,0x40,0x00,0x28,0x80,0x55,0x40,
0x18,0x90,0x56,0x2c,0x3e,0x90,0x55,0x22,0x1e,0x80,0x56,0x40,0x2e,0x90,0x54,0x34,
0x0a,0x80,0x55,0x40,0x1c,0x80,0x54,0x40,0x0c,0x90,0x53,0x45,0x24,0x80,0x53,0x40,
0x10,0x90,0x54,0x34,0x36,0x90,0x53,0x45,0x24,0x80,0x54,0x40,0x22,0x90,0x52,0x34,
0x0e,0x80,0x53,0x40,0x1e,0x80,0x52,0x40,0x10,0x90,0x51,0x36,0x44,0x90,0x50,0x41,
0x24,0x80,0x51,0x40,0x1c,0x90,0x4f,0x3b,0x24,0x80,0x50,0x40,0x14,0x90,0x4e,0x3e,
0x16,0x80,0x4f,0x40,0x1a,0x80,0x4e,0x40,0x08,0x90,0x4d,0x3a,0x22,0x80,0x4d,0x40,
0x1a,0x90,0x4c,0x48,0x1e,0x80,0x4c,0x40,0x12,0x90,0x4b,0x47,0x2c,0xb0,0x40,0x7f,
0x16,0x90,0x4a,0x4b,0x24,0x80,0x4b,0x40,0x10,0x80,0x4a,0x40,0x0c,0xb0,0x40,0x00,
0x02,0x90,0x49,0x33,0x26,0x80,0x49,0x40,0x1a,0x90,0x4a,0x48,0x3c,0x90,0x49,0x25,
0x16,0x80,0x4a,0x40,0x28,0x90,0x48,0x3d,0x1e,0x80,0x49,0x40,0x0a,0x80,0x48,0x40,
0x0c,0x90,0x47,0x4a,0x26,0x80,0x47,0x40,0x16,0x90,0x48,0x2f,0x36,0x90,0x47,0x35,
0x1c,0x80,0x48,0x40,0x1c,0x90,0x46,0x3e,0x20,0x80,0x47,0x40,0x1c,0x80,0x46,0x40,
0x04,0x90,0x45,0x34,0x44,0x90,0x44,0x3c,0x1c,0x80,0x45,0x40,0x22,0x90,0x43,0x37,
0x2a,0x80,0x44,0x40,0x08,0x90,0x42,0x3a,0x20,0x80,0x43,0x40,0x18,0x90,0x41,0x3b,
0x04,0x80,0x42,0x40,0x24,0x80,0x41,0x40,0x26,0x90,0x40,0x57,0x1c,0x80,0x40,0x40,
0x0e,0x90,0x3f,0x4b,0x3e,0x90,0x3e,0x3b,0x2e,0x80,0x3f,0x40,0x04,0x80,0x3e,0x40,
0x04,0x90,0x3d,0x44,0x2a,0x80,0x3d,0x40,0x1e,0x90,0x3e,0x44,0x3c,0x90,0x3d,0x38,
0x20,0x80,0x3e,0x40,0x20,0x90,0x3c,0x3d,0x1c,0x80,0x3d,0x40,0x14,0x80,0x3c,0x40,
0x06,0x90,0x3b,0x3c,0x2e,0x80,0x3b,0x40,0x08,0x90,0x40,0x59,0x2c,0x80,0x40,0x40,
0x02,0x90,0x3f,0x3e,0x40,0x90,0x3e,0x45,0x02,0x80,0x3f,0x40,0x38,0x80,0x3e,0x40,
0x0c,0x90,0x3d,0x40,0x2c,0x80,0x3d,0x40,0x2e,0x90,0x3e,0x3d,0x38,0x90,0x3d,0x33,
0x06,0x80,0x3e,0x40,0x38,0x90,0x3c,0x37,0x14,0x80,0x3d,0x40,0x1c,0x80,0x3c,0x40,
0x0e,0x90,0x3b,0x34,0x2c,0x80,0x3b,0x40,0x24,0x90,0x40,0x26,0x26,0x90,0x3f,0x3b,
0x06,0x80,0x40,0x40,0x36,0x90,0x3e,0x30,0x04,0x80,0x3f,0x40,0x2a,0x80,0x3e,0x40,
0x10,0x90,0x3d,0x36,0x2c,0x80,0x3d,0x40,0x20,0x90,0x3e,0x2f,0x3a,0x80,0x3e,0x40,
0x00,0x90,0x3d,0x1f,0x40,0x90,0x3c,0x2c,0x10,0x80,0x3d,0x40,0x20,0x80,0x3c,0x40,
0x0c,0x90,0x3b,0x2e,0x2a,0x80,0x3b,0x40,0x1e,0x90,0x40,0x2b,0x26,0x90,0x3f,0x2b,
0x02,0x80,0x40,0x40,0x30,0x80,0x3f,0x40,0x02,0x90,0x3e,0x2a,0x2c,0x80,0x3e,0x40,
0x10,0x90,0x3d,0x2e,0x32,0x80,0x3d,0x40,0x1a,0x90,0x3e,0x27,0x2e,0x90,0x3d,0x21,
0x06,0x80,0x3e,0x40,0x34,0x90,0x3c,0x2e,0x10,0x80,0x3d,0x40,0x1e,0x80,0x3c,0x40,
0x14,0x90,0x3b,0x2f,0x2c,0x80,0x3b,0x40,0x28,0x90,0x40,0x37,0x00,0x90,0x34,0x2a,
0x02,0x90,0x2d,0x2d,0x06,0x90,0x3c,0x0a,0x24,0x80,0x34,0x40,0x04,0x80,0x2d,0x40,
0x0e,0x80,0x3c,0x40,0x0a,0x90,0x3f,0x31,0x0a,0x80,0x40,0x40,0x12,0x90,0x3e,0x3e,
0x0c,0x80,0x3f,0x40,0x2a,0x80,0x3e,0x40,0x16,0x90,0x3d,0x3a,0x2e,0x80,0x3d,0x40,
0x0e,0x90,0x3c,0x40,0x2c,0x80,0x3c,0x40,0x28,0x90,0x41,0x28,0x22,0x90,0x40,0x3b,
0x08,0x80,0x41,0x40,0x26,0x80,0x40,0x40,0x10,0x90,0x3f,0x41,0x2e,0x80,0x3f,0x40,
0x14,0x90,0x3c,0x40,0x06,0x90,0x2d,0x1f,0x04,0x90,0x40,0x36,0x0a,0x90,0x34,0x3a,
0x1a,0x90,0x3f,0x3e,0x10,0x80,0x40,0x40,0x02,0x80,0x34,0x40,0x02,0x80,0x2d,0x40,
0x14,0x80,0x3c,0x40,0x14,0x80,0x3f,0x40,0x0a,0x90,0x3e,0x36,0x2c,0x80,0x3e,0x40,
0x16,0x90,0x3d,0x42,0x3c,0x80,0x3d,0x40,0x0e,0x90,0x3c,0x3c,0x00,0x90,0x39,0x30,
0x0c,0x90,0x36,0x37,0x06,0x90,0x32,0x33,0x18,0x80,0x39,0x40,0x04,0x90,0x3d,0x35,
0x08,0x80,0x36,0x40,0x00,0x80,0x3c,0x40,0x06,0x80,0x32,0x40,0x42,0x90,0x3e,0x32,
0x14,0x80,0x3d,0x40,0x1e,0x80,0x3e,0x40,0x00,0x90,0x3f,0x2f,0x2e,0x80,0x3f,0x40,
0x1e,0x90,0x3c,0x3a,0x04,0x90,0x40,0x3b,0x06,0x90,0x2d,0x38,0x06,0x90,0x34,0x3e,
0x26,0x80,0x34,0x40,0x02,0x80,0x3c,0x40,0x08,0x80,0x2d,0x40,0x0a,0x90,0x3f,0x37,
0x1e,0x80,0x40,0x40,0x04,0x90,0x3e,0x45,0x0c,0x80,0x3f,0x40,0x3c,0x80,0x3e,0x40,
0x04,0x90,0x3d,0x3f,0x38,0x80,0x3d,0x40,0x02,0x90,0x3c,0x3d,0x3e,0x80,0x3c,0x40,
0x08,0x90,0x41,0x3a,0x30,0x80,0x41,0x40,0x06,0x90,0x40,0x35,0x2a,0x80,0x40,0x40,
0x12,0x90,0x3f,0x39,0x34,0x80,0x3f,0x40,0x12,0x90,0x40,0x2e,0x02,0x90,0x3c,0x3a,
0x00,0x90,0x2d,0x30,0x00,0x90,0x34,0x39,0x26,0x90,0x3f,0x44,0x0c,0x80,0x3c,0x40,
0x02,0x80,0x34,0x40,0x0a,0x80,0x40,0x40,0x1a,0x80,0x2d,0x40,0x12,0x80,0x3f,0x40,
0x0a,0x90,0x3e,0x32,0x2e,0x80,0x3e,0x40,0x0e,0x90,0x3d,0x3b,0x4c,0x80,0x3d,0x40,
0x0e,0x90,0x3c,0x33,0x06,0x90,0x39,0x1f,0x00,0x90,0x36,0x2e,0x06,0x90,0x32,0x25,
0x24,0x80,0x3c,0x40,0x00,0x90,0x3d,0x32,0x04,0x80,0x36,0x40,0x06,0x80,0x39,0x40,
0x04,0x80,0x32,0x40,0x32,0x90,0x3e,0x2c,0x0e,0x80,0x3d,0x40,0x28,0x90,0x3f,0x36,
0x10,0x80,0x3e,0x40,0x1e,0x80,0x3f,0x40,0x16,0x90,0x2d,0x33,0x04,0x90,0x34,0x37,
0x00,0x90,0x3c,0x39,0x02,0x90,0x40,0x3f,0x24,0x80,0x34,0x40,0x0a,0x80,0x2d,0x40,
0x1c,0x90,0x3f,0x3b,0x02,0x80,0x3c,0x40,0x12,0x80,0x40,0x40,0x1a,0x90,0x3e,0x49,
0x06,0x80,0x3f,0x40,0x30,0x90,0x3d,0x3a,0x0a,0x80,0x3e,0x40,0x20,0x80,0x3d,0x40,
0x08,0x90,0x3e,0x47,0x0c,0x90,0x39,0x33,0x0a,0x90,0x35,0x4a,0x1a,0x90,0x3d,0x32,
0x06,0x80,0x39,0x40,0x02,0x80,0x35,0x40,0x26,0x80,0x3e,0x40,0x14,0x90,0x3c,0x3b,
0x22,0x80,0x3d,0x40,0x08,0x80,0x3c,0x40,0x0a,0x90,0x3b,0x41,0x36,0x80,0x3b,0x40,
0x0c,0x90,0x3c,0x2c,0x0a,0x90,0x34,0x43,0x00,0x90,0x39,0x38,0x24,0x80,0x34,0x40,
0x08,0x80,0x39,0x40,0x0e,0x90,0x3d,0x4b,0x1a,0x80,0x3c,0x40,0x0a,0x80,0x3d,0x40,
0x1e,0x90,0x3e,0x47,0x30,0x80,0x3e,0x40,0x12,0x90,0x3f,0x47,0x36,0x90,0x38,0x38,
0x08,0x90,0x40,0x43,0x06,0x90,0x3b,0x32,0x14,0x80,0x3f,0x40,0x10,0x80,0x3b,0x40,
0x04,0x80,0x40,0x40,0x06,0x80,0x38,0x40,0x0c,0x90,0x41,0x3b,0x38,0x90,0x40,0x41,
0x2c,0x80,0x41,0x40,0x14,0x90,0x3f,0x45,0x04,0x80,0x40,0x40,0x24,0x80,0x3f,0x40,
0x1a,0x90,0x40,0x47,0x00,0x90,0x39,0x30,0x0c,0x90,0x34,0x42,0x04,0x90,0x30,0x24,
0x1c,0x80,0x34,0x40,0x00,0x80,0x39,0x40,0x02,0x90,0x3f,0x3d,0x16,0x80,0x30,0x40,
0x0e,0x80,0x40,0x40,0x2c,0x80,0x3f,0x40,0x00,0x90,0x3e,0x3b,0x2e,0x80,0x3e,0x40,
0x1a,0x90,0x3d,0x30,0x2a,0x90,0x3e,0x3d,0x02,0x90,0x29,0x37,0x00,0x90,0x32,0x3a,
0x04,0x80,0x3d,0x40,0x00,0x90,0x2d,0x27,0x2a,0x80,0x29,0x40,0x02,0x80,0x32,0x40,
0x08,0x80,0x2d,0x40,0x0e,0x90,0x3d,0x2a,0x1c,0x80,0x3e,0x40,0x2e,0x90,0x3c,0x30,
0x16,0x80,0x3d,0x40,0x16,0x80,0x3c,0x40,0x0c,0x90,0x3b,0x3e,0x32,0x90,0x30,0x3a,
0x02,0x90,0x2d,0x32,0x02,0x80,0x3b,0x40,0x00,0x90,0x3c,0x2a,0x02,0x90,0x28,0x46,
0x24,0x80,0x30,0x40,0x06,0x80,0x28,0x40,0x04,0x80,0x2d,0x40,0x1e,0x80,0x3c,0x40,
0x00,0x90,0x3d,0x40,0x26,0x80,0x3d,0x40,0x14,0x90,0x3e,0x44,0x24,0x80,0x3e,0x40,
0x18,0x90,0x3f,0x45,0x20,0x80,0x3f,0x40,0x10,0x90,0x2f,0x3f,0x0a,0x90,0x26,0x36,
0x04,0x90,0x28,0x3d,0x04,0x90,0x40,0x4d,0x1a,0x80,0x2f,0x40,0x04,0x80,0x26,0x40,
0x02,0x80,0x28,0x40,0x08,0x80,0x40,0x40,0x18,0x90,0x42,0x3b,0x3c,0x90,0x43,0x39,
0x14,0x80,0x42,0x40,0x2a,0x90,0x44,0x2f,0x12,0x80,0x43,0x40,0x1e,0x80,0x44,0x40,
0x02,0x90,0x25,0x35,0x0a,0x90,0x45,0x3f,0x0c,0x90,0x2d,0x21,0x00,0x90,0x34,0x36,
0x10,0x80,0x25,0x40,0x1a,0x80,0x34,0x40,0x0a,0x80,0x2d,0x40,0x12,0x90,0x44,0x29,
0x14,0x80,0x45,0x40,0x12,0x90,0x43,0x42,0x24,0x80,0x44,0x40,0x20,0x80,0x43,0x40,
0x00,0x90,0x42,0x38,0x0e,0x90,0x26,0x2a,0x12,0x90,0x2d,0x23,0x1c,0x80,0x26,0x40,
0x06,0x80,0x42,0x40,0x0e,0x80,0x2d,0x40,0x00,0x90,0x41,0x34,0x02,0x90,0x35,0x4a,
0x24,0x80,0x35,0x40,0x14,0x80,0x41,0x40,0x04,0x90,0x46,0x33,0x30,0x90,0x45,0x31,
0x12,0x80,0x46,0x40,0x20,0x80,0x45,0x40,0x0e,0x90,0x44,0x3d,0x2c,0x80,0x44,0x40,
0x16,0x90,0x45,0x32,0x34,0x90,0x44,0x2d,0x1c,0x80,0x45,0x40,0x2e,0x90,0x43,0x2c,
0x0e,0x80,0x44,0x40,0x24,0x80,0x43,0x40,0x0e,0x90,0x42,0x2c,0x30,0x80,0x42,0x40,
0x08,0x90,0x32,0x29,0x06,0x90,0x37,0x28,0x02,0x90,0x3b,0x1b,0x04,0x90,0x41,0x2e,
0x24,0x80,0x32,0x40,0x04,0x80,0x37,0x40,0x04,0x80,0x41,0x40,0x04,0x80,0x3b,0x40,
0x04,0x90,0x42,0x1b,0x3e,0x80,0x42,0x40,0x00,0x90,0x43,0x2b,0x36,0x90,0x44,0x2b,
0x04,0x80,0x43,0x40,0x30,0x80,0x44,0x40,0x14,0x90,0x3e,0x2a,0x02,0x90,0x45,0x32,
0x0a,0x90,0x39,0x1b,0x06,0x90,0x35,0x1e,0x1a,0x80,0x3e,0x40,0x12,0x80,0x39,0x40,
0x08,0x80,0x35,0x40,0x06,0x90,0x44,0x22,0x22,0x80,0x45,0x40,0x08,0x90,0x43,0x3d,
0x0e,0x80,0x44,0x40,0x2e,0x80,0x43,0x40,0x0e,0x90,0x42,0x30,0x30,0x80,0x42,0x40,
0x14,0x90,0x41,0x32,0x36,0x80,0x41,0x40,0x04,0x90,0x46,0x32,0x36,0x80,0x46,0x40,
0x04,0x90,0x45,0x39,0x30,0x90,0x44,0x3e,0x06,0x80,0x45,0x40,0x26,0x80,0x44,0x40,
0x18,0x90,0x39,0x34,0x00,0x90,0x45,0x32,0x0c,0x90,0x29,0x2c,0x04,0x90,0x32,0x36,
0x18,0x90,0x44,0x41,0x04,0x80,0x45,0x40,0x0a,0x80,0x29,0x40,0x02,0x80,0x32,0x40,
0x04,0x80,0x39,0x40,0x32,0x90,0x43,0x35,0x02,0x80,0x44,0x40,0x30,0x80,0x43,0x40,
0x14,0x90,0x42,0x2e,0x34,0x80,0x42,0x40,0x08,0x90,0x41,0x39,0x06,0x90,0x3b,0x38,
0x02,0x90,0x37,0x3a,0x0a,0x90,0x32,0x36,0x1a,0x80,0x3b,0x40,0x04,0x80,0x37,0x40,
0x0a,0x80,0x41,0x40,0x04,0x80,0x32,0x40,0x04,0x90,0x42,0x21,0x36,0x90,0x43,0x3c,
0x0e,0x80,0x42,0x40,0x30,0x90,0x44,0x32,0x16,0x80,0x43,0x40,0x20,0x80,0x44,0x40,
0x08,0x90,0x45,0x41,0x06,0x90,0x39,0x32,0x04,0x90,0x3e,0x35,0x2a,0x80,0x3e,0x40,
0x00,0x80,0x39,0x40,0x0c,0x90,0x44,0x34,0x2a,0x90,0x43,0x49,0x06,0x80,0x45,0x40,
0x34,0x80,0x44,0x40,0x0e,0x80,0x43,0x40,0x0c,0x90,0x42,0x29,0x2c,0x80,0x42,0x40,
0x0c,0x90,0x3d,0x3a,0x02,0x90,0x43,0x3d,0x04,0x90,0x3a,0x18,0x2c,0x80,0x3d,0x40,
0x04,0x90,0x42,0x24,0x0c,0x80,0x3a,0x40,0x1e,0x80,0x43,0x40,0x38,0x80,0x42,0x40,
0x1c,0x90,0x40,0x2d,0x3e,0x80,0x40,0x40,0x08,0x90,0x41,0x37,0x02,0x90,0x3c,0x30,
0x06,0x90,0x39,0x22,0x28,0x80,0x3c,0x40,0x0a,0x90,0x42,0x34,0x02,0x80,0x39,0x40,
0x08,0x80,0x41,0x40,0x1a,0x80,0x42,0x40,0x24,0x90,0x43,0x3f,0x30,0x90,0x44,0x3e,
0x02,0x80,0x43,0x40,0x48,0x90,0x45,0x3b,0x04,0x90,0x3d,0x3c,0x04,0x90,0x34,0x2a,
0x00,0x90,0x37,0x1c,0x14,0x80,0x44,0x40,0x12,0x80,0x45,0x40,0x04,0x80,0x34,0x40,
0x02,0x80,0x3d,0x40,0x06,0x90,0x46,0x37,0x06,0x80,0x37,0x40,0x32,0x90,0x45,0x27,
0x36,0x80,0x46,0x40,0x04,0x90,0x44,0x3e,0x02,0x80,0x45,0x40,0x22,0x80,0x44,0x40,
0x20,0x90,0x45,0x37,0x00,0x90,0x3e,0x3d,0x02,0x90,0x39,0x29,0x08,0x90,0x35,0x2f,
0x1a,0x80,0x3e,0x40,0x0c,0x80,0x39,0x40,0x02,0x80,0x35,0x40,0x04,0x90,0x44,0x30,
0x2c,0x80,0x45,0x40,0x12,0x80,0x44,0x40,0x02,0x90,0x43,0x39,0x3a,0x80,0x43,0x40,
0x18,0x90,0x42,0x23,0x20,0x90,0x43,0x43,0x10,0x80,0x42,0x40,0x0a,0x90,0x37,0x3b,
0x02,0x90,0x2e,0x24,0x04,0x90,0x32,0x2d,0x22,0x80,0x37,0x40,0x06,0x90,0x42,0x29,
0x08,0x80,0x32,0x40,0x08,0x80,0x2e,0x40,0x1e,0x80,0x43,0x40,0x18,0x90,0x41,0x35,
0x26,0x80,0x41,0x40,0x02,0x80,0x42,0x40,0x12,0x90,0x40,0x41,0x40,0x90,0x35,0x51,
0x00,0x90,0x41,0x29,0x06,0x90,0x2d,0x2a,0x02,0x80,0x40,0x40,0x02,0x90,0x32,0x39,
0x1e,0x80,0x35,0x40,0x08,0x80,0x32,0x40,0x0c,0x80,0x2d,0x40,0x02,0x90,0x42,0x38,
0x20,0x80,0x41,0x40,0x02,0x80,0x42,0x40,0x1a,0x90,0x43,0x4b,0x36,0x90,0x44,0x47,
0x0c,0x80,0x43,0x40,0x34,0x90,0x45,0x43,0x0a,0x90,0x31,0x32,0x02,0x90,0x34,0x37,
0x06,0x80,0x44,0x40,0x04,0x90,0x2b,0x1b,0x1c,0x80,0x34,0x40,0x06,0x80,0x45,0x40,
0x06,0x80,0x31,0x40,0x04,0x90,0x46,0x41,0x0e,0x80,0x2b,0x40,0x32,0x90,0x45,0x34,
0x38,0x80,0x46,0x40,0x12,0x90,0x44,0x45,0x0c,0x80,0x45,0x40,0x22,0x80,0x44,0x40,
0x06,0x90,0x29,0x3e,0x00,0x90,0x32,0x3e,0x04,0x90,0x2d,0x2e,0x04,0x90,0x45,0x39,
0x1c,0x80,0x29,0x40,0x06,0x80,0x32,0x40,0x08,0x80,0x2d,0x40,0x1c,0xb0,0x40,0x7f,
0x0a,0x90,0x39,0x52,0x04,0x80,0x45,0x40,0x16,0xb0,0x40,0x00,0x1a,0x80,0x39,0x40,
0x04,0x90,0x38,0x4b,0x3a,0x80,0x38,0x40,0x00,0x90,0x39,0x3b,0x36,0x90,0x38,0x42,
0x16,0x80,0x39,0x40,0x0a,0xb0,0x40,0x7f,0x1e,0x80,0x38,0x40,0x08,0x90,0x39,0x49,
0x22,0xb0,0x40,0x00,0x14,0x90,0x38,0x40,0x0c,0x80,0x39,0x40,0x20,0x80,0x38,0x40,
0x16,0x90,0x39,0x47,0x32,0xb0,0x40,0x7f,0x00,0x90,0x38,0x3f,0x04,0x90,0x3a,0x45,
0x06,0x80,0x39,0x40,0x1e,0x80,0x3a,0x40,0x06,0x80,0x38,0x40,0x1a,0x90,0x46,0x48,
0x00,0x90,0x39,0x3e,0x36,0x80,0x39,0x40,0x0a,0x80,0x46,0x40,0x02,0x90,0x38,0x39,
0x02,0x90,0x3a,0x2f,0x24,0x80,0x38,0x40,0x08,0x80,0x3a,0x40,0x0c,0x90,0x46,0x40,
0x02,0x90,0x39,0x34,0x2c,0x80,0x46,0x40,0x02,0x80,0x39,0x40,0x16,0x90,0x3a,0x28,
0x06,0x90,0x38,0x31,0x28,0x80,0x38,0x40,0x06,0x80,0x3a,0x40,0x02,0x90,0x39,0x32,
0x08,0x90,0x46,0x36,0x24,0x80,0x39,0x40,0x02,0x80,0x46,0x40,0x2a,0x90,0x3a,0x2c,
0x08,0x90,0x38,0x27,0x10,0x90,0x46,0x28,0x16,0x80,0x3a,0x40,0x06,0x80,0x38,0x40,
0x0c,0x80,0x46,0x40,0x42,0x90,0x45,0x44,0x06,0x90,0x39,0x48,0x1c,0x80,0x45,0x40,
0x04,0x80,0x39,0x40,0x1c,0x90,0x45,0x59,0x24,0x80,0x45,0x40,0x0a,0xb0,0x40,0x00,
0x26,0x90,0x44,0x4d,0x20,0x80,0x44,0x40,0x18,0x90,0x45,0x4f,0x28,0x80,0x45,0x40,
0x0e,0x90,0x44,0x35,0x36,0x90,0x45,0x40,0x04,0x80,0x44,0x40,0x3c,0x90,0x44,0x4b,
0x06,0x80,0x45,0x40,0x2e,0x80,0x44,0x40,0x00,0x90,0x45,0x4f,0x42,0x80,0x45,0x40,
0x06,0x90,0x46,0x56,0x00,0x90,0x44,0x45,0x24,0x80,0x44,0x40,0x04,0x80,0x46,0x40,
0x00,0xb0,0x40,0x7f,0x08,0x90,0x45,0x4f,0x02,0x90,0x52,0x55,0x1a,0x90,0x47,0x32,
0x14,0x80,0x52,0x40,0x04,0x80,0x45,0x40,0x1c,0x80,0x47,0x40,0x06,0x90,0x46,0x3b,
0x06,0x90,0x44,0x34,0x1c,0x80,0x46,0x40,0x08,0x80,0x44,0x40,0x02,0x90,0x45,0x47,
0x04,0x90,0x52,0x49,0x20,0x80,0x52,0x40,0x02,0x80,0x45,0x40,0x1c,0x90,0x46,0x22,
0x02,0x90,0x44,0x23,0x28,0x80,0x44,0x40,0x04,0x80,0x46,0x40,0x12,0x90,0x52,0x43,
0x02,0x90,0x45,0x3e,0x1e,0x80,0x52,0x40,0x0c,0x80,0x45,0x40,0x26,0x90,0x46,0x36,
0x0e,0x90,0x44,0x20,0x16,0x80,0x46,0x40,0x08,0x90,0x52,0x3a,0x1a,0x80,0x44,0x40,
0x0a,0x80,0x52,0x40,0x2a,0x90,0x45,0x50,0x1a,0x80,0x45,0x40,0x2e,0x90,0x46,0x42,
0x4a,0x90,0x45,0x02,0x10,0x80,0x46,0x40,0x16,0x90,0x44,0x48,0x18,0x80,0x45,0x40,
0x0a,0xb0,0x40,0x00,0x02,0x80,0x44,0x40,0x20,0x90,0x45,0x42,0x2c,0x80,0x45,0x40,
0x14,0x90,0x46,0x3e,0x34,0x90,0x45,0x2b,0x32,0x80,0x46,0x40,0x1c,0x90,0x44,0x32,
0x0a,0x80,0x45,0x40,0x22,0x90,0x39,0x39,0x04,0x80,0x44,0x40,0x0c,0x90,0x45,0x3f,
0x06,0xb0,0x40,0x7f,0x1c,0x80,0x39,0x40,0x1a,0x80,0x45,0x40,0x06,0x90,0x46,0x2d,
0x1c,0x90,0x38,0x44,0x02,0x90,0x3a,0x32,0x20,0x90,0x45,0x24,0x02,0x80,0x46,0x40,
0x16,0x80,0x3a,0x40,0x12,0x80,0x38,0x40,0x04,0x90,0x44,0x36,0x0a,0x80,0x45,0x40,
0x26,0x90,0x3b,0x52,0x08,0x90,0x45,0x3f,0x04,0x90,0x37,0x49,0x08,0x80,0x44,0x40,
0x20,0x80,0x3b,0x40,0x1c,0x90,0x46,0x37,0x1c,0x90,0x3c,0x54,0x14,0x90,0x36,0x54,
0x20,0x80,0x37,0x40,0x12,0x80,0x36,0x40,0x06,0x80,0x46,0x40,0x08,0x90,0x44,0x3c,
0x0e,0x80,0x3c,0x40,0x0a,0xb0,0x40,0x00,0x02,0x80,0x45,0x40,0x1e,0x90,0x3d,0x66,
0x0a,0x90,0x39,0x48,0x04,0x90,0x35,0x68,0x02,0x80,0x44,0x40,0x00,0x90,0x45,0x4b,
0x28,0x80,0x35,0x40,0x20,0x80,0x39,0x40,0x00,0x80,0x3d,0x40,0x10,0x90,0x46,0x46,
0x22,0xb0,0x40,0x7f,0x0e,0x90,0x47,0x3f,0x14,0x80,0x45,0x40,0x24,0x80,0x46,0x40,
0x24,0x90,0x48,0x1b,0x18,0x80,0x47,0x40,0x1e,0x90,0x49,0x41,0x02,0x80,0x48,0x40,
0x00,0x90,0x51,0x40,0x38,0x90,0x48,0x48,0x00,0x90,0x52,0x22,0x0c,0x80,0x51,0x40,
0x08,0x80,0x49,0x40,0x10,0x80,0x48,0x40,0x0a,0x90,0x47,0x2e,0x06,0x90,0x53,0x4c,
0x1e,0x80,0x52,0x40,0x0a,0x90,0x46,0x3a,0x08,0x90,0x54,0x4c,0x02,0x80,0x53,0x40,
0x0c,0x80,0x47,0x40,0x1a,0x80,0x46,0x40,0x04,0x80,0x54,0x40,0x0e,0x90,0x45,0x3f,
0x06,0x90,0x55,0x57,0x48,0x90,0x46,0x37,0x04,0x90,0x54,0x57,0x04,0x80,0x55,0x40,
0x06,0x80,0x45,0x40,0x32,0x90,0x47,0x3b,0x00,0x90,0x53,0x5b,0x10,0x80,0x54,0x40,
0x0c,0x80,0x46,0x40,0x2a,0x90,0x52,0x42,0x00,0x90,0x48,0x37,0x06,0x80,0x53,0x40,
0x26,0x80,0x47,0x40,0x0a,0x80,0x48,0x40,0x00,0x90,0x51,0x40,0x00,0x90,0x49,0x4c,
0x1a,0x80,0x52,0x40,0x28,0x80,0x51,0x40,0x0c,0x90,0x48,0x37,0x3a,0x90,0x47,0x4f,
0x14,0x80,0x49,0x40,0x24,0x80,0x48,0x40,0x0c,0x90,0x46,0x3d,0x20,0x80,0x47,0x40,
0x2a,0x90,0x3e,0x56,0x06,0x90,0x45,0x47,0x02,0x90,0x36,0x56,0x00,0x90,0x39,0x3d,
0x0e,0x80,0x46,0x40,0x18,0x80,0x39,0x40,0x06,0x80,0x45,0x40,0x02,0x80,0x36,0x40,
0x1e,0x80,0x3e,0x40,0x4a,0x90,0x3d,0x51,0x20,0x80,0x3d,0x40,0x08,0xb0,0x40,0x00,
0x20,0x90,0x3e,0x49,0x20,0x80,0x3e,0x40,0x1c,0x90,0x3d,0x3d,0x26,0x80,0x3d,0x40,
0x06,0x90,0x3e,0x39,0x2a,0x80,0x3e,0x40,0x24,0x90,0x3d,0x3c,0x26,0x80,0x3d,0x40,
0x14,0x90,0x3e,0x44,0x20,0x80,0x3e,0x40,0x24,0x90,0x3f,0x56,0x02,0x90,0x3d,0x45,
0x24,0x80,0x3d,0x40,0x00,0x80,0x3f,0x40,0x10,0xb0,0x40,0x7f,0x08,0x90,0x4b,0x52,
0x08,0x90,0x3e,0x51,0x16,0x80,0x4b,0x40,0x08,0x80,0x3e,0x40,0x28,0x90,0x3f,0x49,
0x08,0x90,0x3d,0x42,0x1a,0x80,0x3f,0x40,0x08,0x80,0x3d,0x40,0x08,0x90,0x3e,0x3b,
0x06,0x90,0x4b,0x4b,0x20,0x80,0x4b,0x40,0x06,0x80,0x3e,0x40,0x1c,0x90,0x3d,0x2f,
0x02,0x90,0x3f,0x39,0x2a,0x80,0x3f,0x40,0x02,0x80,0x3d,0x40,0x20,0x90,0x3e,0x24,
0x04,0x90,0x4b,0x34,0x28,0x80,0x4b,0x40,0x0c,0x80,0x3e,0x40,0x0e,0x90,0x3f,0x48,
0x0a,0x90,0x3d,0x3e,0x10,0x90,0x4b,0x40,0x10,0x80,0x3f,0x40,0x06,0x80,0x3d,0x40,
0x1a,0x80,0x4b,0x40,0x3e,0x90,0x3e,0x57,0x0a,0x90,0x4a,0x64,0x12,0x80,0x3e,0x40,
0x02,0x80,0x4a,0x40,0x36,0x90,0x4a,0x45,0x0e,0xb0,0x40,0x00,0x16,0x80,0x4a,0x40,
0x18,0x90,0x49,0x55,0x22,0x80,0x49,0x40,0x24,0x90,0x4a,0x4d,0x24,0x80,0x4a,0x40,
0x10,0x90,0x49,0x4e,0x28,0x80,0x49,0x40,0x18,0x90,0x4a,0x4e,0x3a,0x90,0x49,0x4a,
0x06,0x80,0x4a,0x40,0x20,0x80,0x49,0x40,0x18,0x90,0x4a,0x58,0x3e,0x80,0x4a,0x40,
0x02,0x90,0x4b,0x5a,0x00,0x90,0x49,0x4b,0x02,0xb0,0x40,0x7f,0x1c,0x80,0x4b,0x40,
0x02,0x80,0x49,0x40,0x1a,0x90,0x4a,0x54,0x06,0x90,0x57,0x53,0x1c,0x80,0x57,0x40,
0x00,0x80,0x4a,0x40,0x06,0x90,0x4c,0x16,0x1e,0x90,0x4b,0x48,0x08,0x90,0x49,0x39,
0x0e,0x80,0x4c,0x40,0x0a,0x80,0x4b,0x40,0x08,0x80,0x49,0x40,0x16,0x90,0x4a,0x48,
0x04,0x90,0x57,0x3d,0x18,0x80,0x4a,0x40,0x08,0x80,0x57,0x40,0x18,0x90,0x4b,0x3c,
0x02,0x90,0x49,0x21,0x24,0x80,0x4b,0x40,0x04,0x80,0x49,0x40,0x0e,0x90,0x57,0x26,
0x06,0x90,0x4a,0x34,0x1e,0x80,0x57,0x40,0x08,0x80,0x4a,0x40,0x1c,0x90,0x4b,0x43,
0x0e,0x90,0x49,0x29,0x20,0x80,0x4b,0x40,0x02,0x80,0x49,0x40,0x08,0x90,0x57,0x38,
0x20,0x80,0x57,0x40,0x36,0x90,0x4a,0x61,0x18,0x80,0x4a,0x40,0x30,0x90,0x4b,0x3e,
0x30,0x90,0x4a,0x04,0x28,0x80,0x4b,0x40,0x1a,0x80,0x4a,0x40,0x02,0x90,0x49,0x44,
0x08,0xb0,0x40,0x00,0x2a,0x80,0x49,0x40,0x12,0x90,0x4a,0x44,0x40,0x80,0x4a,0x40,
0x06,0x90,0x4b,0x44,0x3e,0x90,0x4a,0x3c,0x2a,0x80,0x4b,0x40,0x00,0xb0,0x40,0x7f,
0x02,0x80,0x4a,0x40,0x0a,0x90,0x49,0x38,0x34,0x90,0x3e,0x2b,0x02,0x80,0x49,0x40,
0x08,0x90,0x4a,0x35,0x28,0x80,0x3e,0x40,0x0e,0x80,0x4a,0x40,0x02,0x90,0x4b,0x39,
0x28,0x90,0x3f,0x3d,0x06,0x90,0x3d,0x26,0x2e,0x80,0x3d,0x40,0x00,0x80,0x4b,0x40,
0x08,0x90,0x4a,0x14,0x14,0x90,0x49,0x3e,0x02,0x80,0x3f,0x40,0x1a,0x80,0x4a,0x40,
0x1c,0x90,0x40,0x4f,0x04,0x80,0x49,0x40,0x04,0x90,0x3c,0x41,0x14,0x90,0x4a,0x3e,
0x12,0x80,0x40,0x40,0x0c,0x80,0x3c,0x40,0x08,0x80,0x4a,0x40,0x08,0x90,0x4b,0x44,
0x34,0x90,0x41,0x49,0x00,0x90,0x4a,0x39,0x0a,0x90,0x3b,0x3b,0x24,0x80,0x3b,0x40,
0x04,0x90,0x49,0x42,0x08,0x80,0x41,0x40,0x00,0x80,0x4b,0x40,0x08,0x80,0x4a,0x40,
0x12,0xb0,0x40,0x00,0x2e,0x90,0x42,0x5a,0x06,0x80,0x49,0x40,0x00,0x90,0x4a,0x45,
0x06,0x90,0x3e,0x4c,0x00,0x90,0x3a,0x45,0x26,0x80,0x3e,0x40,0x06,0x80,0x3a,0x40,
0x0c,0x80,0x42,0x40,0x1c,0x90,0x4b,0x44,0x06,0x80,0x4a,0x40,0x0a,0xb0,0x40,0x7f,
0x2a,0x90,0x4c,0x2d,0x14,0x80,0x4b,0x40,0x34,0x90,0x4d,0x1b,0x2c,0x80,0x4c,0x40,
0x02,0x90,0x56,0x3a,0x04,0x90,0x4e,0x46,0x0e,0x80,0x4d,0x40,0x36,0x80,0x56,0x40,
0x00,0x90,0x57,0x3b,0x08,0x90,0x4d,0x46,0x18,0x80,0x4e,0x40,0x16,0x90,0x58,0x34,
0x06,0x90,0x4c,0x26,0x0a,0x80,0x57,0x40,0x04,0x80,0x4d,0x40,0x3a,0x80,0x58,0x40,
0x04,0x90,0x59,0x48,0x04,0x90,0x4b,0x3f,0x0c,0x80,0x4c,0x40,0x2c,0x90,0x5a,0x54,
0x0a,0x90,0x4a,0x41,0x02,0x80,0x59,0x40,0x04,0x80,0x4b,0x40,0x34,0x90,0x59,0x54,
0x0e,0x90,0x4b,0x36,0x06,0x80,0x5a,0x40,0x1e,0x80,0x4a,0x40,0x06,0x90,0x58,0x35,
0x06,0x90,0x4c,0x33,0x06,0x80,0x59,0x40,0x30,0x80,0x58,0x40,0x02,0x80,0x4b,0x40,
0x04,0x90,0x57,0x35,0x0a,0x90,0x4d,0x3a,0x18,0x80,0x4c,0x40,0x1a,0x90,0x56,0x37,
0x04,0x80,0x57,0x40,0x02,0x90,0x4e,0x4f,0x04,0x80,0x4d,0x40,0x34,0x80,0x56,0x40,
0x1c,0x90,0x4d,0x32,0x30,0x90,0x4c,0x39,0x08,0x80,0x4e,0x40,0x2a,0x80,0x4d,0x40,
0x24,0x90,0x4b,0x40,0x22,0x80,0x4c,0x40,0x00,0xb0,0x40,0x00,0x16,0x80,0x4b,0x40,
0x00,0x90,0x43,0x3e,0x0a,0x90,0x3a,0x29,0x02,0x90,0x3e,0x32,0x00,0x90,0x4a,0x47,
0x00,0x90,0x37,0x27,0x3a,0x80,0x4a,0x40,0x00,0x80,0x3e,0x40,0x06,0x80,0x37,0x40,
0x06,0x90,0x49,0x3a,0x0e,0x80,0x3a,0x40,0x14,0x80,0x43,0x40,0x16,0xb0,0x40,0x7f,
0x0a,0x90,0x48,0x3f,0x2a,0x80,0x48,0x40,0x04,0x80,0x49,0x40,0x0a,0x90,0x47,0x3e,
0x26,0x80,0x47,0x40,0x16,0x90,0x46,0x49,0x08,0xb0,0x40,0x00,0x26,0x80,0x46,0x40,
0x22,0x90,0x57,0x48,0x3e,0x90,0x4b,0x43,0x08,0x90,0x56,0x4c,0x22,0x80,0x4b,0x40,
0x0a,0x80,0x57,0x40,0x16,0x90,0x55,0x3e,0x06,0x80,0x56,0x40,0x1a,0x80,0x55,0x40,
0x22,0x90,0x56,0x49,0x0c,0x90,0x4a,0x46,0x24,0x80,0x4a,0x40,0x12,0x90,0x55,0x2a,
0x18,0x80,0x56,0x40,0x22,0x90,0x54,0x4b,0x2a,0x80,0x54,0x40,0x04,0x80,0x55,0x40,
0x14,0x90,0x53,0x53,0x42,0x80,0x53,0x40,0x08,0x90,0x52,0x43,0x06,0x90,0x4e,0x39,
0x08,0x90,0x4b,0x2a,0x1a,0x80,0x52,0x40,0x10,0x80,0x4b,0x40,0x00,0x80,0x4e,0x40,
0x12,0x90,0x53,0x40,0x2c,0x80,0x53,0x40,0x1e,0x90,0x54,0x30,0x34,0x80,0x54,0x40,
0x02,0x90,0x55,0x31,0x2e,0x80,0x55,0x40,0x10,0x90,0x56,0x43,0x06,0x90,0x4d,0x30,
0x0a,0x90,0x4a,0x24,0x04,0x90,0x46,0x18,0x16,0x80,0x4d,0x40,0x14,0x80,0x4a,0x40,
0x0a,0x90,0x55,0x25,0x04,0x80,0x46,0x40,0x1a,0x80,0x56,0x40,0x26,0x90,0x54,0x38,
0x1e,0x80,0x55,0x40,0x16,0x90,0x53,0x48,0x04,0x80,0x54,0x40,0x26,0x80,0x53,0x40,
0x12,0x90,0x54,0x30,0x04,0x90,0x4b,0x35,0x04,0x90,0x48,0x25,0x0c,0x90,0x42,0x23,
0x20,0x80,0x48,0x40,0x00,0x80,0x4b,0x40,0x06,0x90,0x53,0x4b,0x16,0x80,0x54,0x40,
0x02,0x80,0x42,0x40,0x1a,0x90,0x52,0x3a,0x0c,0x80,0x53,0x40,0x30,0x80,0x52,0x40,
0x04,0x90,0x51,0x38,0x2e,0x80,0x51,0x40,0x20,0x90,0x52,0x3d,0x0e,0x90,0x43,0x30,
0x00,0x90,0x4a,0x3b,0x08,0x90,0x46,0x25,0x20,0x80,0x4a,0x40,0x00,0x80,0x52,0x40,
0x04,0x80,0x43,0x40,0x0a,0x80,0x46,0x40,0x02,0x90,0x53,0x61,0x48,0x90,0x54,0x53,
0x02,0x80,0x53,0x40,0x2c,0x80,0x54,0x40,0x02,0x90,0x55,0x45,0x38,0x80,0x55,0x40,
0x06,0x90,0x54,0x4f,0x02,0x90,0x49,0x2e,0x0c,0x90,0x41,0x1e,0x00,0x90,0x45,0x1c,
0x32,0x80,0x41,0x40,0x02,0x80,0x45,0x40,0x0a,0x90,0x55,0x4f,0x0a,0x80,0x49,0x40,
0x06,0x80,0x54,0x40,0x0a,0x90,0x4a,0x0c,0x26,0x80,0x4a,0x40,0x02,0x90,0x56,0x4a,
0x08,0x90,0x4b,0x44,0x14,0x80,0x55,0x40,0x08,0x80,0x4b,0x40,0x12,0x90,0x57,0x3b,
0x24,0x80,0x56,0x40,0x12,0x90,0x4c,0x5d,0x04,0x90,0x44,0x32,0x02,0x90,0x58,0x52,
0x02,0x80,0x57,0x40,0x02,0x90,0x40,0x49,0x0e,0x80,0x4c,0x40,0x12,0x80,0x40,0x40,
0x04,0x80,0x44,0x40,0x1a,0x90,0x57,0x41,0x02,0xb0,0x40,0x7f,0x28,0x90,0x56,0x53,
0x22,0x80,0x58,0x40,0x0c,0x80,0x57,0x40,0x20,0x90,0x55,0x42,0x08,0x80,0x56,0x40,
0x26,0x80,0x55,0x40,0x08,0xb0,0x40,0x00,0x14,0x90,0x56,0x47,0x04,0x90,0x4c,0x3f,
0x22,0x80,0x4c,0x40,0x0e,0x90,0x4d,0x3d,0x06,0x90,0x55,0x41,0x20,0x80,0x4d,0x40,
0x14,0x80,0x56,0x40,0x0c,0x90,0x4c,0x1d,0x0a,0x90,0x54,0x4d,0x28,0x80,0x4c,0x40,
0x02,0x80,0x55,0x40,0x08,0x80,0x54,0x40,0x0c,0x90,0x4d,0x3d,0x00,0x90,0x53,0x51,
0x20,0x80,0x4d,0x40,0x06,0x80,0x53,0x40,0x12,0x90,0x54,0x49,0x0a,0x90,0x4c,0x31,
0x26,0x90,0x53,0x56,0x08,0x80,0x4c,0x40,0x00,0x90,0x4d,0x30,0x22,0x80,0x54,0x40,
0x0c,0x80,0x4d,0x40,0x0e,0x90,0x52,0x46,0x12,0x90,0x4c,0x24,0x10,0x80,0x53,0x40,
0x1a,0x80,0x52,0x40,0x00,0x90,0x4d,0x3f,0x00,0x90,0x51,0x3b,0x02,0x80,0x4c,0x40,
0x28,0x80,0x4d,0x40,0x18,0x90,0x50,0x49,0x00,0x90,0x4c,0x33,0x16,0x80,0x51,0x40,
0x20,0x90,0x4d,0x36,0x02,0x90,0x4f,0x48,0x14,0x80,0x4c,0x40,0x22,0x80,0x4d,0x40,
0x00,0x80,0x50,0x40,0x0e,0x90,0x4e,0x4a,0x06,0x90,0x4c,0x45,0x14,0x80,0x4f,0x40,
0x0e,0x80,0x4e,0x40,0x14,0x90,0x4d,0x3b,0x1c,0x80,0x4c,0x40,0x2a,0x80,0x4d,0x40,
0x02,0x90,0x4c,0x5e,0x2e,0x80,0x4c,0x40,0x00,0x90,0x4d,0x4b,0x3c,0x90,0x4c,0x5e,
0x00,0xb0,0x40,0x7f,0x1c,0x80,0x4d,0x40,0x12,0x80,0x4c,0x40,0x16,0x90,0x4b,0x41,
0x1e,0xb0,0x40,0x00,0x18,0x80,0x4b,0x40,0x10,0x90,0x4c,0x3a,0x04,0x90,0x40,0x52,
0x1e,0x80,0x40,0x40,0x0c,0x80,0x4c,0x40,0x12,0x90,0x4d,0x40,0x3a,0x90,0x4c,0x30,
0x08,0x90,0x3c,0x53,0x0e,0x80,0x4d,0x40,0x12,0x80,0x3c,0x40,0x20,0x90,0x4b,0x3e,
0x02,0x80,0x4c,0x40,0x2a,0x80,0x4b,0x40,0x12,0x90,0x4c,0x3c,0x0a,0x90,0x39,0x53,
0x24,0x80,0x39,0x40,0x04,0x80,0x4c,0x40,0x18,0x90,0x4d,0x39,0x30,0x90,0x4c,0x2f,
0x02,0x80,0x4d,0x40,0x0a,0x90,0x35,0x61,0x1c,0x80,0x35,0x40,0x1c,0x90,0x4b,0x39,
0x02,0x80,0x4c,0x40,0x30,0x80,0x4b,0x40,0x10,0x90,0x4c,0x33,0x0e,0x90,0x39,0x42,
0x24,0x80,0x39,0x40,0x00,0x80,0x4c,0x40,0x12,0x90,0x4d,0x32,0x2e,0x90,0x4c,0x32,
0x02,0x80,0x4d,0x40,0x12,0x90,0x3c,0x53,0x24,0x80,0x3c,0x40,0x0c,0x90,0x4b,0x41,
0x06,0x80,0x4c,0x40,0x1a,0x80,0x4b,0x40,0x38,0x90,0x40,0x65,0x22,0x80,0x40,0x40,
0x1c,0xb0,0x40,0x7f,0x0a,0x90,0x41,0x42,0x2c,0x90,0x40,0x34,0x04,0x80,0x41,0x40,
0x12,0xb0,0x40,0x00,0x1c,0x80,0x40,0x40,0x08,0x90,0x3f,0x41,0x2c,0x80,0x3f,0x40,
0x0e,0x90,0x34,0x5e,0x02,0x90,0x28,0x5f,0x10,0x90,0x40,0x30,0x08,0x80,0x28,0x40,
0x00,0x80,0x34,0x40,0x26,0x80,0x40,0x40,0x02,0x90,0x41,0x36,0x32,0x80,0x41,0x40,
0x10,0x90,0x30,0x55,0x00,0x90,0x24,0x5f,0x06,0x90,0x40,0x36,0x12,0x80,0x24,0x40,
0x04,0x80,0x30,0x40,0x10,0x80,0x40,0x40,0x04,0x90,0x3f,0x45,0x34,0x80,0x3f,0x40,
0x20,0x90,0x40,0x3a,0x04,0x90,0x2d,0x4f,0x08,0x90,0x21,0x4a,0x18,0x80,0x2d,0x40,
0x0e,0x80,0x21,0x40,0x04,0x90,0x41,0x2e,0x02,0x80,0x40,0x40,0x2c,0x80,0x41,0x40,
0x18,0x90,0x40,0x2a,0x00,0x90,0x29,0x55,0x00,0x90,0x1d,0x5c,0x1c,0x80,0x1d,0x40,
0x02,0x80,0x29,0x40,0x0a,0x80,0x40,0x40,0x06,0x90,0x3f,0x43,0x42,0x80,0x3f,0x40,
0x0a,0x90,0x2d,0x55,0x06,0x90,0x21,0x54,0x04,0x90,0x40,0x35,0x1a,0x80,0x2d,0x40,
0x02,0x80,0x21,0x40,0x12,0x80,0x40,0x40,0x0e,0x90,0x41,0x36,0x34,0x80,0x41,0x40,
0x02,0x90,0x40,0x39,0x06,0x90,0x30,0x48,0x04,0x90,0x24,0x4c,0x1e,0x80,0x24,0x40,
0x02,0x80,0x30,0x40,0x14,0x80,0x40,0x40,0x06,0x90,0x3f,0x4a,0x30,0x80,0x3f,0x40,
0x12,0x90,0x40,0x48,0x0c,0x90,0x34,0x62,0x00,0x90,0x28,0x61,0x3a,0x90,0x3f,0x49,
0x18,0x80,0x40,0x40,0x22,0x80,0x34,0x40,0x02,0x80,0x28,0x40,0x02,0x90,0x3e,0x44,
0x2a,0x80,0x3f,0x40,0x12,0x80,0x3e,0x40,0x02,0x90,0x3d,0x4b,0x2a,0x80,0x3d,0x40,
0x2a,0x90,0x3e,0x48,0x36,0x90,0x3d,0x3e,0x28,0x80,0x3e,0x40,0x1e,0x90,0x3c,0x45,
0x16,0x80,0x3d,0x40,0x14,0x80,0x3c,0x40,0x10,0x90,0x3b,0x3b,0x24,0x80,0x3b,0x40,
0x14,0x90,0x3c,0x3e,0x30,0x90,0x3b,0x39,0x2a,0x80,0x3c,0x40,0x16,0x90,0x3a,0x42,
0x1c,0x80,0x3b,0x40,0x20,0x80,0x3a,0x40,0x04,0x90,0x39,0x38,0x40,0x90,0x38,0x43,
0x18,0x80,0x39,0x40,0x1c,0x90,0x37,0x45,0x34,0x80,0x38,0x40,0x08,0x90,0x36,0x50,
0x20,0x80,0x37,0x40,0x16,0x90,0x35,0x5e,0x08,0x80,0x36,0x40,0x22,0x80,0x35,0x40,
0x1e,0x90,0x34,0x5f,0x2c,0x80,0x34,0x40,0x0a,0x90,0x35,0x5c,0x48,0x90,0x34,0x56,
0x0a,0x80,0x35,0x40,0x36,0x80,0x34,0x40,0x06,0x90,0x33,0x38,0x2c,0x80,0x33,0x40,
0x08,0x90,0x34,0x55,0x1e,0x80,0x34,0x40,0x14,0x90,0x35,0x5b,0x2a,0x80,0x35,0x40,
0x1c,0x90,0x34,0x36,0x2c,0x80,0x34,0x40,0x06,0x90,0x33,0x42,0x3c,0x80,0x33,0x40,
0x12,0x90,0x34,0x4a,0x24,0x80,0x34,0x40,0x22,0x90,0x35,0x4c,0x2a,0x80,0x35,0x40,
0x0e,0x90,0x34,0x3b,0x2c,0x80,0x34,0x40,0x0e,0x90,0x33,0x33,0x2c,0x80,0x33,0x40,
0x0e,0x90,0x34,0x3f,0x28,0x80,0x34,0x40,0x22,0x90,0x35,0x3f,0x2e,0x80,0x35,0x40,
0x0e,0x90,0x34,0x34,0x28,0x80,0x34,0x40,0x12,0x90,0x33,0x2e,0x30,0x80,0x33,0x40,
0x0e,0x90,0x34,0x38,0x30,0x80,0x34,0x40,0x1c,0x90,0x35,0x41,0x18,0xb0,0x40,0x7f,
0x18,0x80,0x35,0x40,0x0e,0xb0,0x40,0x00,0x0e,0x90,0x34,0x15,0x22,0x90,0x33,0x33,
0x0c,0x80,0x34,0x40,0x20,0x80,0x33,0x40,0x16,0x90,0x48,0x42,0x00,0x90,0x4c,0x3d,
0x0c,0x90,0x34,0x45,0x1a,0x80,0x48,0x40,0x02,0x80,0x4c,0x40,0x06,0x80,0x34,0x40,
0x10,0x90,0x35,0x45,0x30,0x80,0x35,0x40,0x0a,0x90,0x48,0x29,0x06,0x90,0x34,0x32,
0x02,0x90,0x45,0x35,0x1e,0x80,0x48,0x40,0x06,0x80,0x34,0x40,0x08,0x80,0x45,0x40,
0x00,0x90,0x33,0x29,0x2e,0x80,0x33,0x40,0x0a,0x90,0x34,0x3d,0x12,0x90,0x45,0x33,
0x06,0x90,0x41,0x50,0x12,0x80,0x34,0x40,0x12,0x80,0x45,0x40,0x04,0x80,0x41,0x40,
0x0a,0x90,0x35,0x4c,0x38,0x80,0x35,0x40,0x16,0x90,0x3d,0x50,0x06,0x90,0x41,0x3f,
0x0e,0x90,0x34,0x18,0x1e,0x80,0x3d,0x40,0x02,0x80,0x41,0x40,0x02,0x90,0x33,0x2e,
0x0e,0x80,0x34,0x40,0x1e,0x80,0x33,0x40,0x28,0x90,0x41,0x43,0x04,0x90,0x34,0x34,
0x02,0x90,0x45,0x49,0x1a,0x80,0x41,0x40,0x06,0x80,0x45,0x40,0x08,0x80,0x34,0x40,
0x00,0x90,0x35,0x53,0x3e,0x80,0x35,0x40,0x10,0x90,0x48,0x59,0x02,0x90,0x34,0x34,
0x02,0x90,0x45,0x1f,0x1c,0x80,0x48,0x40,0x0c,0x80,0x45,0x40,0x00,0x80,0x34,0x40,
0x06,0x90,0x33,0x37,0x2e,0x80,0x33,0x40,0x1a,0x90,0x34,0x39,0x0e,0x90,0x4c,0x5b,
0x02,0x90,0x48,0x53,0x1e,0x80,0x48,0x40,0x1c,0x80,0x34,0x40,0x0a,0x80,0x4c,0x40,
0x06,0x90,0x35,0x4b,0x2c,0x80,0x35,0x40,0x04,0x90,0x34,0x4e,0x26,0x80,0x34,0x40,
0x0e,0x90,0x33,0x30,0x34,0x80,0x33,0x40,0x0c,0x90,0x34,0x43,0x12,0x90,0x58,0x5d,
0x04,0x90,0x51,0x51,0x06,0x90,0x54,0x48,0x18,0x80,0x51,0x40,0x00,0x80,0x34,0x40,
0x08,0x80,0x54,0x40,0x08,0x80,0x58,0x40,0x10,0x90,0x35,0x47,0x34,0x80,0x35,0x40,
0x02,0x90,0x54,0x39,0x04,0x90,0x51,0x2f,0x06,0x90,0x4c,0x4c,0x08,0x90,0x34,0x25,
0x0e,0x80,0x54,0x40,0x06,0x80,0x51,0x40,0x06,0x80,0x4c,0x40,0x08,0x90,0x33,0x39,
0x0e,0x80,0x34,0x40,0x26,0x80,0x33,0x40,0x16,0x90,0x34,0x44,0x14,0x90,0x4d,0x51,
0x00,0x90,0x49,0x4c,0x00,0x90,0x51,0x51,0x12,0x80,0x34,0x40,0x0a,0x80,0x51,0x40,
0x0a,0x80,0x49,0x40,0x02,0x80,0x4d,0x40,0x0c,0x90,0x35,0x42,0x34,0x80,0x35,0x40,
0x0c,0x90,0x45,0x3d,0x04,0x90,0x4d,0x30,0x0c,0x90,0x49,0x1a,0x22,0x80,0x45,0x40,
0x02,0x90,0x33,0x32,0x08,0x80,0x4d,0x40,0x02,0x80,0x49,0x40,0x26,0x80,0x33,0x40,
0x18,0x90,0x49,0x33,0x0a,0x90,0x4d,0x26,0x04,0x90,0x34,0x3e,0x06,0x90,0x51,0x42,
0x10,0x80,0x49,0x40,0x0e,0x80,0x51,0x40,0x02,0x80,0x34,0x40,0x00,0x80,0x4d,0x40,
0x24,0x90,0x35,0x3b,0x2e,0x90,0x4c,0x40,0x00,0x90,0x54,0x54,0x02,0x90,0x51,0x42,
0x08,0x80,0x35,0x40,0x16,0x80,0x51,0x40,0x00,0x80,0x4c,0x40,0x06,0x80,0x54,0x40,
0x24,0x90,0x33,0x2f,0x30,0x80,0x33,0x40,0x10,0x90,0x51,0x36,0x00,0x90,0x58,0x47,
0x08,0x90,0x54,0x33,0x02,0x90,0x34,0x4d,0x16,0x80,0x58,0x40,0x02,0x80,0x51,0x40,
0x08,0x80,0x54,0x40,0x02,0x80,0x34,0x40,0x14,0x90,0x35,0x59,0x3e,0x80,0x35,0x40,
0x12,0x90,0x34,0x2a,0x24,0x90,0x33,0x38,0x04,0x80,0x34,0x40,0x28,0x80,0x33,0x40,
0x18,0x90,0x40,0x55,0x0a,0x90,0x34,0x43,0x16,0x80,0x40,0x40,0x0e,0x80,0x34,0x40,
0x1c,0x90,0x41,0x40,0x2e,0x80,0x41,0x40,0x02,0x90,0x42,0x37,0x24,0x80,0x42,0x40,
0x1a,0x90,0x43,0x4c,0x30,0x80,0x43,0x40,0x0a,0x90,0x42,0x13,0x04,0x90,0x44,0x45,
0x04,0x90,0x3d,0x42,0x30,0x80,0x3d,0x40,0x0a,0x90,0x45,0x38,0x12,0x80,0x42,0x40,
0x02,0x80,0x44,0x40,0x28,0x90,0x46,0x44,0x20,0x80,0x45,0x40,0x04,0x80,0x46,0x40,
0x10,0x90,0x47,0x4c,0x3c,0x80,0x47,0x40,0x08,0x90,0x48,0x48,0x0c,0x90,0x44,0x38,
0x0a,0x90,0x40,0x3c,0x1e,0x80,0x48,0x40,0x04,0x80,0x40,0x40,0x06,0x80,0x44,0x40,
0x02,0x90,0x49,0x3f,0x26,0x80,0x49,0x40,0x16,0x90,0x4a,0x46,0x24,0x80,0x4a,0x40,
0x1c,0x90,0x4b,0x3d,0x24,0x80,0x4b,0x40,0x24,0x90,0x4c,0x37,0x04,0x90,0x48,0x41,
0x04,0x90,0x43,0x3a,0x22,0x80,0x48,0x40,0x04,0x80,0x4c,0x40,0x04,0x80,0x43,0x40,
0x0a,0x90,0x4d,0x48,0x42,0x90,0x4e,0x39,0x06,0x80,0x4d,0x40,0x20,0x80,0x4e,0x40,
0x16,0x90,0x4f,0x4c,0x32,0x80,0x4f,0x40,0x10,0x90,0x4d,0x37,0x02,0x90,0x50,0x3d,
0x06,0x90,0x48,0x20,0x24,0x80,0x4d,0x40,0x0c,0x80,0x50,0x40,0x00,0x90,0x51,0x39,
0x0c,0x80,0x48,0x40,0x2e,0x90,0x52,0x3b,0x02,0x80,0x51,0x40,0x22,0x80,0x52,0x40,
0x12,0x90,0x53,0x57,0x24,0x80,0x53,0x40,0x20,0x90,0x54,0x57,0x04,0x90,0x50,0x32,
0x04,0x90,0x4b,0x1a,0x1c,0x80,0x54,0x40,0x08,0x80,0x50,0x40,0x04,0x90,0x55,0x40,
0x0e,0x80,0x4b,0x40,0x2a,0x80,0x55,0x40,0x02,0x90,0x56,0x3d,0x2e,0x80,0x56,0x40,
0x1c,0x90,0x57,0x30,0x40,0x80,0x57,0x40,0x00,0x90,0x50,0x39,0x00,0x90,0x58,0x3b,
0x04,0x90,0x54,0x44,0x1c,0x80,0x50,0x40,0x04,0x80,0x54,0x40,0x04,0x80,0x58,0x40,
0x28,0x90,0x4d,0x48,0x28,0x80,0x4d,0x40,0x08,0x90,0x4c,0x45,0x48,0x90,0x4b,0x45,
0x12,0x80,0x4c,0x40,0x34,0x80,0x4b,0x40,0x06,0x90,0x51,0x4a,0x02,0x90,0x4c,0x36,
0x00,0x90,0x45,0x37,0x0a,0x90,0x40,0x1f,0x04,0x90,0x39,0x2f,0x04,0x90,0x3c,0x1e,
0x18,0x80,0x4c,0x40,0x06,0x80,0x45,0x40,0x08,0x80,0x40,0x40,0x0a,0x80,0x39,0x40,
0x08,0x80,0x3c,0x40,0x02,0x90,0x4b,0x31,0x0e,0x80,0x51,0x40,0x1e,0x80,0x4b,0x40,
0x06,0x90,0x4a,0x3a,0x2a,0x80,0x4a,0x40,0x18,0x90,0x49,0x3e,0x2a,0x80,0x49,0x40,
0x1c,0x90,0x48,0x3b,0x34,0x80,0x48,0x40,0x14,0x90,0x4d,0x35,0x2c,0x80,0x4d,0x40,
0x0a,0x90,0x4c,0x2c,0x2c,0x80,0x4c,0x40,0x10,0x90,0x4b,0x37,0x36,0x80,0x4b,0x40,
0x12,0x90,0x4c,0x29,0x0a,0x90,0x45,0x2a,0x10,0x90,0x39,0x1f,0x00,0x90,0x3c,0x1e,
0x04,0x90,0x40,0x28,0x14,0x90,0x4b,0x31,0x08,0x80,0x45,0x40,0x0a,0x80,0x4c,0x40,
0x02,0x80,0x40,0x40,0x0c,0x80,0x3c,0x40,0x00,0x80,0x39,0x40,0x10,0x80,0x4b,0x40,
0x10,0x90,0x4a,0x32,0x2c,0x80,0x4a,0x40,0x24,0x90,0x49,0x33,0x38,0x80,0x49,0x40,
0x00,0x90,0x36,0x30,0x08,0x90,0x39,0x23,0x16,0x90,0x3e,0x31,0x00,0x90,0x48,0x46,
0x10,0x80,0x36,0x40,0x00,0x90,0x51,0x38,0x0e,0x80,0x39,0x40,0x02,0x90,0x45,0x20,
0x06,0x80,0x48,0x40,0x00,0x80,0x3e,0x40,0x2c,0x90,0x49,0x28,0x04,0x80,0x51,0x40,
0x0a,0x80,0x45,0x40,0x28,0x80,0x49,0x40,0x0c,0x90,0x4a,0x2c,0x28,0x90,0x4b,0x38,
0x04,0x80,0x4a,0x40,0x38,0x80,0x4b,0x40,0x12,0x90,0x51,0x34,0x02,0x90,0x45,0x27,
0x04,0x90,0x4c,0x35,0x02,0x90,0x40,0x24,0x02,0x90,0x3c,0x14,0x06,0x90,0x39,0x18,
0x22,0x80,0x4c,0x40,0x00,0xb0,0x40,0x7f,0x02,0x80,0x45,0x40,0x04,0x80,0x40,0x40,
0x06,0x80,0x51,0x40,0x06,0x80,0x3c,0x40,0x08,0xb0,0x40,0x00,0x04,0x90,0x4b,0x2a,
0x04,0x80,0x39,0x40,0x34,0x80,0x4b,0x40,0x00,0x90,0x4a,0x3e,0x2a,0x80,0x4a,0x40,
0x0e,0x90,0x49,0x2e,0x38,0x80,0x49,0x40,0x18,0x90,0x48,0x39,0x30,0x80,0x48,0x40,
0x10,0x90,0x4d,0x36,0x36,0x90,0x4c,0x2e,0x04,0x80,0x4d,0x40,0x26,0x80,0x4c,0x40,
0x0e,0x90,0x4b,0x3c,0x2e,0x80,0x4b,0x40,0x22,0x90,0x45,0x21,0x04,0x90,0x4c,0x2a,
0x0c,0x90,0x3c,0x23,0x06,0x90,0x40,0x19,0x04,0x90,0x39,0x13,0x1a,0x90,0x4b,0x36,
0x02,0x80,0x45,0x40,0x0c,0x80,0x3c,0x40,0x00,0x80,0x4c,0x40,0x08,0x80,0x40,0x40,
0x08,0x80,0x39,0x40,0x12,0x80,0x4b,0x40,0x0a,0x90,0x4a,0x32,0x26,0x80,0x4a,0x40,
0x26,0x90,0x49,0x3e,0x1a,0x90,0x36,0x30,0x12,0x80,0x49,0x40,0x08,0x90,0x3e,0x26,
0x14,0x80,0x36,0x40,0x04,0x90,0x48,0x45,0x12,0x80,0x3e,0x40,0x04,0x90,0x45,0x32,
0x06,0x90,0x51,0x36,0x10,0x80,0x48,0x40,0x08,0x90,0x49,0x2f,0x16,0x80,0x45,0x40,
0x12,0x80,0x49,0x40,0x04,0x80,0x51,0x40,0x14,0x90,0x4a,0x3b,0x20,0x80,0x4a,0x40,
0x10,0x90,0x4b,0x37,0x28,0x80,0x4b,0x40,0x22,0x90,0x51,0x4c,0x02,0x90,0x45,0x33,
0x00,0x90,0x40,0x23,0x04,0x90,0x39,0x22,0x06,0x90,0x4c,0x3c,0x22,0x80,0x45,0x40,
0x02,0x80,0x40,0x40,0x08,0x80,0x39,0x40,0x04,0x80,0x4c,0x40,0x0c,0x90,0x4b,0x39,
0x06,0x80,0x51,0x40,0x32,0x80,0x4b,0x40,0x06,0x90,0x4a,0x47,0x38,0x90,0x49,0x3b,
0x04,0x80,0x4a,0x40,0x28,0x80,0x49,0x40,0x12,0x90,0x4a,0x4a,0x0a,0x90,0x3e,0x37,
0x0c,0x90,0x39,0x1e,0x06,0x90,0x35,0x2f,0x16,0x80,0x3e,0x40,0x18,0x80,0x35,0x40,
0x00,0x90,0x49,0x2f,0x06,0x80,0x39,0x40,0x08,0x80,0x4a,0x40,0x28,0x90,0x48,0x3d,
0x28,0x80,0x48,0x40,0x02,0x80,0x49,0x40,0x0e,0x90,0x47,0x45,0x42,0x80,0x47,0x40,
0x08,0x90,0x48,0x34,0x00,0x90,0x3c,0x2f,0x00,0x90,0x34,0x3c,0x02,0x90,0x39,0x27,
0x28,0x80,0x34,0x40,0x04,0x80,0x39,0x40,0x02,0x80,0x3c,0x40,0x14,0x90,0x49,0x3e,
0x12,0x80,0x48,0x40,0x10,0x80,0x49,0x40,0x12,0x90,0x4a,0x49,0x2e,0x80,0x4a,0x40,
0x0c,0x90,0x4b,0x40,0x46,0x90,0x4c,0x3c,0x08,0x90,0x3b,0x2e,0x04,0x80,0x4b,0x40,
0x00,0x90,0x32,0x32,0x02,0x90,0x34,0x30,0x1a,0x80,0x4c,0x40,0x08,0x80,0x3b,0x40,
0x04,0x80,0x34,0x40,0x06,0x80,0x32,0x40,0x12,0x90,0x4d,0x3b,0x34,0x90,0x4c,0x2c,
0x1c,0x80,0x4d,0x40,0x22,0x80,0x4c,0x40,0x02,0x90,0x4b,0x42,0x28,0x80,0x4b,0x40,
0x20,0x90,0x39,0x31,0x06,0x90,0x30,0x22,0x02,0x90,0x4c,0x2f,0x02,0x90,0x34,0x2f,
0x20,0x80,0x39,0x40,0x0c,0x80,0x34,0x40,0x04,0x80,0x30,0x40,0x08,0x90,0x4b,0x34,
0x16,0x80,0x4c,0x40,0x1e,0x80,0x4b,0x40,0x12,0x90,0x4a,0x3f,0x2e,0x80,0x4a,0x40,
0x22,0x90,0x49,0x37,0x30,0x90,0x4a,0x3e,0x06,0x90,0x2d,0x31,0x02,0x90,0x32,0x32,
0x06,0x90,0x29,0x17,0x08,0x80,0x49,0x40,0x20,0x80,0x32,0x40,0x04,0x80,0x2d,0x40,
0x0a,0x80,0x29,0x40,0x00,0x90,0x49,0x37,0x1c,0x80,0x4a,0x40,0x30,0x90,0x48,0x35,
0x18,0x80,0x49,0x40,0x10,0x80,0x48,0x40,0x08,0x90,0x47,0x41,0x40,0x80,0x47,0x40,
0x00,0x90,0x30,0x33,0x04,0x90,0x48,0x2a,0x00,0x90,0x2d,0x34,0x04,0x90,0x28,0x39,
0x26,0x80,0x2d,0x40,0x02,0x80,0x30,0x40,0x02,0x80,0x28,0x40,0x16,0x80,0x48,0x40,
0x02,0x90,0x49,0x3b,0x26,0x80,0x49,0x40,0x10,0x90,0x4a,0x44,0x28,0x80,0x4a,0x40,
0x24,0x90,0x4b,0x3c,0x22,0x80,0x4b,0x40,0x26,0x90,0x4c,0x42,0x04,0x90,0x2f,0x31,
0x08,0x90,0x26,0x24,0x02,0x90,0x28,0x15,0x18,0x80,0x4c,0x40,0x0a,0x80,0x2f,0x40,
0x0c,0x80,0x28,0x40,0x02,0x80,0x26,0x40,0x0a,0x90,0x4e,0x40,0x3e,0x90,0x4f,0x3d,
0x0e,0x80,0x4e,0x40,0x38,0x90,0x50,0x3c,0x02,0x80,0x4f,0x40,0x2c,0x80,0x50,0x40,
0x02,0x90,0x25,0x26,0x12,0x90,0x34,0x3c,0x06,0x90,0x51,0x45,0x12,0x80,0x25,0x40,
0x06,0x90,0x2d,0x10,0x30,0x80,0x34,0x40,0x0a,0x80,0x2d,0x40,0x02,0x90,0x50,0x3c,
0x12,0x80,0x51,0x40,0x10,0x90,0x4f,0x4f,0x1a,0x80,0x50,0x40,0x38,0x90,0x4e,0x46,
0x08,0x80,0x4f,0x40,0x10,0x90,0x26,0x23,0x02,0x90,0x2d,0x2d,0x26,0x80,0x4e,0x40,
0x02,0x80,0x2d,0x40,0x0a,0x80,0x26,0x40,0x04,0x90,0x4d,0x3f,0x00,0x90,0x35,0x5f,
0x14,0xb0,0x40,0x7f,0x10,0x80,0x35,0x40,0x0c,0x80,0x4d,0x40,0x04,0x90,0x52,0x3a,
0x04,0xb0,0x40,0x00,0x40,0x90,0x51,0x3f,0x28,0x80,0x52,0x40,0x04,0x80,0x51,0x40,
0x12,0x90,0x50,0x41,0x28,0x80,0x50,0x40,0x20,0x90,0x51,0x49,0x44,0x90,0x50,0x3e,
0x0c,0x80,0x51,0x40,0x1c,0x90,0x4f,0x49,0x06,0x80,0x50,0x40,0x20,0x80,0x4f,0x40,
0x28,0x90,0x4e,0x45,0x3e,0x80,0x4e,0x40,0x0a,0x90,0x2f,0x37,0x0e,0x90,0x4d,0x48,
0x00,0x90,0x56,0x4e,0x08,0x90,0x37,0x31,0x00,0x90,0x3e,0x23,0x10,0x80,0x2f,0x40,
0x14,0x80,0x4d,0x40,0x06,0x80,0x37,0x40,0x06,0x80,0x3e,0x40,0x10,0x90,0x4e,0x45,
0x12,0x80,0x56,0x40,0x2a,0x80,0x4e,0x40,0x16,0x90,0x4f,0x41,0x26,0x80,0x4f,0x40,
0x00,0x90,0x50,0x40,0x46,0x80,0x50,0x40,0x00,0x90,0x32,0x30,0x0c,0x90,0x56,0x3e,
0x0c,0x90,0x51,0x3b,0x04,0x90,0x41,0x36,0x0c,0x90,0x39,0x29,0x12,0x80,0x32,0x40,
0x04,0x80,0x51,0x40,0x02,0x80,0x41,0x40,0x12,0x90,0x50,0x3b,0x02,0x80,0x39,0x40,
0x16,0x80,0x56,0x40,0x26,0x90,0x4f,0x44,0x0c,0x80,0x50,0x40,0x2a,0x80,0x4f,0x40,
0x06,0x90,0x4e,0x42,0x46,0x80,0x4e,0x40,0x10,0x90,0x4d,0x36,0x36,0x80,0x4d,0x40,
0x04,0x90,0x52,0x31,0x3e,0x90,0x51,0x37,0x22,0x80,0x52,0x40,0x0c,0x80,0x51,0x40,
0x18,0x90,0x50,0x36,0x26,0x80,0x50,0x40,0x12,0x90,0x51,0x40,0x06,0x90,0x39,0x2a,
0x04,0x90,0x29,0x24,0x02,0x90,0x32,0x31,0x28,0x80,0x39,0x40,0x02,0x90,0x50,0x29,
0x02,0x80,0x32,0x40,0x04,0x80,0x29,0x40,0x22,0x80,0x51,0x40,0x0a,0x90,0x4f,0x3f,
0x12,0x80,0x50,0x40,0x1a,0x80,0x4f,0x40,0x20,0x90,0x4e,0x41,0x20,0x90,0x2f,0x36,
0x18,0x80,0x4e,0x40,0x02,0x90,0x37,0x36,0x0e,0x80,0x2f,0x40,0x04,0x90,0x4d,0x48,
0x0c,0x90,0x56,0x3a,0x0a,0x80,0x37,0x40,0x16,0x80,0x4d,0x40,0x06,0x90,0x3e,0x1e,
0x0a,0x90,0x4e,0x3c,0x2c,0x80,0x3e,0x40,0x02,0x80,0x56,0x40,0x10,0x80,0x4e,0x40,
0x10,0x90,0x4f,0x46,0x22,0x80,0x4f,0x40,0x00,0x90,0x50,0x38,0x20,0x90,0x32,0x38,
0x08,0x80,0x50,0x40,0x0a,0x90,0x39,0x34,0x16,0x90,0x51,0x4c,0x04,0x80,0x32,0x40,
0x00,0x90,0x56,0x3d,0x0c,0x80,0x39,0x40,0x08,0x90,0x41,0x48,0x1c,0x80,0x56,0x40,
0x06,0x80,0x41,0x40,0x0c,0x80,0x51,0x40,0x02,0x90,0x50,0x38,0x34,0x90,0x4f,0x4b,
0x04,0x80,0x50,0x40,0x28,0x90,0x4e,0x42,0x14,0x80,0x4f,0x40,0x14,0x80,0x4e,0x40,
0x1e,0x90,0x4f,0x55,0x10,0x90,0x2e,0x3b,0x0a,0x90,0x37,0x36,0x14,0x90,0x32,0x0d,
0x18,0x80,0x2e,0x40,0x02,0x90,0x4e,0x4b,0x02,0x80,0x37,0x40,0x0c,0x80,0x32,0x40,
0x14,0x80,0x4f,0x40,0x2a,0x90,0x4d,0x37,0x16,0x80,0x4e,0x40,0x0e,0x80,0x4d,0x40,
0x0a,0x90,0x4c,0x3b,0x48,0x90,0x32,0x3d,0x08,0x90,0x2d,0x2c,0x00,0x90,0x4d,0x3b,
0x0c,0x80,0x4c,0x40,0x12,0x80,0x32,0x40,0x12,0x80,0x2d,0x40,0x06,0x90,0x4e,0x41,
0x0a,0x80,0x4d,0x40,0x18,0x80,0x4e,0x40,0x18,0x90,0x4f,0x53,0x38,0x80,0x4f,0x40,
0x0a,0x90,0x50,0x47,0x3e,0x90,0x2b,0x3d,0x00,0x90,0x31,0x3b,0x02,0x90,0x51,0x47,
0x0a,0x90,0x34,0x2e,0x12,0x80,0x50,0x40,0x0c,0x80,0x2b,0x40,0x0c,0x80,0x34,0x40,
0x00,0x80,0x51,0x40,0x06,0x80,0x31,0x40,0x0c,0x90,0x52,0x3b,0x3c,0x90,0x51,0x3f,
0x40,0x80,0x52,0x40,0x0c,0x90,0x50,0x45,0x0a,0x80,0x51,0x40,0x18,0x80,0x50,0x40,
0x16,0x90,0x29,0x3d,0x02,0x90,0x51,0x4a,0x04,0x90,0x32,0x32,0x02,0x90,0x2d,0x2b,
0x1e,0x80,0x29,0x40,0x0e,0x80,0x32,0x40,0x08,0x80,0x2d,0x40,0x04,0x90,0x50,0x37,
0x18,0x80,0x51,0x40,0x28,0x90,0x4f,0x44,0x18,0x80,0x50,0x40,0x0e,0x80,0x4f,0x40,
0x1a,0x90,0x4e,0x43,0x30,0x80,0x4e,0x40,0x08,0x90,0x39,0x2c,0x0c,0x90,0x32,0x24,
0x04,0x90,0x35,0x36,0x0a,0x90,0x4d,0x31,0x16,0x80,0x39,0x40,0x0a,0x80,0x35,0x40,
0x06,0x80,0x32,0x40,0x08,0x80,0x4d,0x40,0x04,0x90,0x4e,0x32,0x3a,0x90,0x4f,0x3a,
0x12,0x80,0x4e,0x40,0x28,0x90,0x50,0x46,0x0a,0x80,0x4f,0x40,0x14,0x80,0x50,0x40,
0x22,0x90,0x51,0x4a,0x0c,0x90,0x39,0x29,0x02,0x90,0x30,0x21,0x12,0x90,0x34,0x21,
0x18,0x80,0x51,0x40,0x02,0x80,0x39,0x40,0x08,0x90,0x53,0x61,0x02,0x80,0x30,0x40,
0x0c,0x80,0x34,0x40,0x2a,0x90,0x54,0x46,0x18,0x80,0x53,0x40,0x08,0x80,0x54,0x40,
0x20,0x90,0x56,0x47,0x40,0x80,0x56,0x40,0x0c,0x90,0x3b,0x26,0x00,0x90,0x2f,0x30,
0x00,0x90,0x58,0x43,0x02,0x90,0x38,0x29,0x08,0x90,0x34,0x28,0x22,0x80,0x3b,0x40,
0x02,0x80,0x38,0x40,0x00,0x80,0x58,0x40,0x04,0x80,0x2f,0x40,0x02,0x80,0x34,0x40,
0x00,0x90,0x59,0x41,0x3e,0x90,0x58,0x39,0x22,0x80,0x59,0x40,0x28,0x90,0x57,0x3d,
0x0c,0x80,0x58,0x40,0x00,0x90,0x2d,0x3f,0x1a,0x90,0x34,0x30,0x08,0x80,0x57,0x40,
0x06,0x80,0x2d,0x40,0x1a,0x80,0x34,0x40,0x00,0x90,0x58,0x39,0x00,0x90,0x3c,0x54,
0x20,0xb0,0x40,0x7f,0x04,0x80,0x3c,0x40,0x02,0x90,0x57,0x31,0x3c,0x80,0x58,0x40,
0x00,0x90,0x56,0x3c,0x2c,0x80,0x56,0x40,0x00,0x80,0x57,0x40,0x02,0x90,0x45,0x3f,
0x0e,0x90,0x40,0x33,0x04,0x90,0x55,0x43,0x16,0x80,0x45,0x40,0x18,0x80,0x40,0x40,
0x14,0x80,0x55,0x40,0x02,0xb0,0x40,0x00,0x0a,0x90,0x54,0x48,0x2c,0x80,0x54,0x40,
0x1a,0x90,0x59,0x37,0x34,0x90,0x58,0x38,0x1a,0x80,0x59,0x40,0x16,0x80,0x58,0x40,
0x06,0x90,0x57,0x3e,0x28,0x80,0x57,0x40,0x02,0x90,0x2d,0x28,0x16,0x90,0x34,0x3e,
0x0a,0x90,0x58,0x3f,0x16,0x90,0x3c,0x42,0x04,0x80,0x34,0x40,0x00,0x80,0x2d,0x40,
0x14,0xb0,0x40,0x7f,0x10,0x80,0x3c,0x40,0x00,0x90,0x57,0x2b,0x08,0xb0,0x40,0x00,
0x1a,0x80,0x58,0x40,0x00,0x90,0x56,0x46,0x16,0x80,0x57,0x40,0x14,0x80,0x56,0x40,
0x28,0x90,0x55,0x44,0x26,0x80,0x55,0x40,0x06,0x90,0x2a,0x31,0x0a,0x90,0x32,0x30,
0x16,0x90,0x54,0x57,0x02,0x80,0x2a,0x40,0x04,0x90,0x5d,0x3e,0x0c,0x80,0x32,0x40,
0x00,0x90,0x39,0x3b,0x1e,0x80,0x54,0x40,0x0c,0x80,0x39,0x40,0x0e,0x90,0x55,0x3d,
0x1a,0x80,0x5d,0x40,0x28,0x90,0x56,0x3b,0x0c,0x80,0x55,0x40,0x18,0x80,0x56,0x40,
0x00,0x90,0x57,0x2d,0x18,0x90,0x2d,0x3b,0x18,0x80,0x57,0x40,0x00,0x90,0x34,0x2f,
0x12,0x80,0x2d,0x40,0x0c,0x90,0x58,0x49,0x02,0x90,0x3c,0x4f,0x02,0x90,0x5d,0x45,
0x06,0x80,0x34,0x40,0x1e,0x80,0x3c,0x40,0x02,0x80,0x58,0x40,0x0c,0xb0,0x40,0x7f,
0x22,0x90,0x57,0x32,0x12,0x80,0x5d,0x40,0x1c,0x90,0x56,0x3c,0x04,0x90,0x45,0x2f,
0x0e,0x90,0x40,0x24,0x02,0x80,0x57,0x40,0x00,0x90,0x3c,0x0f,0x2a,0x80,0x56,0x40,
0x00,0x90,0x55,0x44,0x0e,0x80,0x45,0x40,0x04,0x80,0x40,0x40,0x0c,0x80,0x3c,0x40,
0x2c,0x80,0x55,0x40,0x00,0x90,0x54,0x4b,0x04,0xb0,0x40,0x00,0x32,0x80,0x54,0x40,
0x06,0x90,0x59,0x37,0x36,0x90,0x58,0x47,0x1e,0x80,0x59,0x40,0x1c,0x90,0x57,0x43,
0x04,0x80,0x58,0x40,0x06,0x90,0x2d,0x36,0x1a,0x80,0x57,0x40,0x0c,0x80,0x2d,0x40,
0x00,0x90,0x34,0x3b,0x18,0x90,0x58,0x42,0x0e,0x80,0x34,0x40,0x04,0x90,0x3c,0x46,
0x24,0x80,0x3c,0x40,0x02,0x90,0x57,0x2e,0x18,0x80,0x58,0x40,0x1e,0x90,0x56,0x3c,
0x10,0x80,0x57,0x40,0x1c,0x80,0x56,0x40,0x16,0x90,0x55,0x3b,0x1c,0x90,0x2a,0x40,
0x0a,0x80,0x55,0x40,0x0a,0x90,0x32,0x34,0x08,0x90,0x5d,0x37,0x06,0x80,0x2a,0x40,
0x06,0x90,0x54,0x5b,0x12,0x80,0x32,0x40,0x02,0x90,0x39,0x40,0x12,0x80,0x5d,0x40,
0x14,0x80,0x39,0x40,0x08,0x90,0x55,0x3b,0x10,0x80,0x54,0x40,0x26,0x80,0x55,0x40,
0x18,0x90,0x56,0x37,0x28,0x80,0x56,0x40,0x04,0x90,0x57,0x37,0x06,0x90,0x2d,0x2f,
0x16,0x90,0x34,0x3e,0x1a,0x90,0x58,0x55,0x02,0x80,0x2d,0x40,0x06,0x90,0x5d,0x34,
0x02,0x80,0x34,0x40,0x06,0x80,0x57,0x40,0x02,0x90,0x3c,0x49,0x10,0x80,0x58,0x40,
0x14,0x80,0x5d,0x40,0x02,0x80,0x3c,0x40,0x20,0xb0,0x40,0x7f,0x32,0x90,0x50,0x4b,
0x40,0x90,0x51,0x43,0x20,0xb0,0x40,0x00,0x08,0x80,0x50,0x40,0x10,0x90,0x45,0x2d,
0x0c,0x90,0x52,0x47,0x18,0x80,0x51,0x40,0x08,0x80,0x45,0x40,0x04,0x80,0x52,0x40,
0x1a,0x90,0x53,0x5b,0x2c,0x90,0x41,0x45,0x08,0x80,0x53,0x40,0x06,0x90,0x54,0x50,
0x14,0x80,0x41,0x40,0x24,0x80,0x54,0x40,0x06,0x90,0x55,0x2c,0x30,0x90,0x56,0x4b,
0x00,0x90,0x3e,0x5d,0x02,0x80,0x55,0x40,0x14,0x90,0x35,0x51,0x10,0x80,0x3e,0x40,
0x12,0x80,0x35,0x40,0x08,0x90,0x55,0x40,0x26,0x80,0x56,0x40,0x08,0x90,0x54,0x4d,
0x10,0x90,0x3b,0x54,0x12,0x80,0x54,0x40,0x0e,0x80,0x55,0x40,0x00,0x90,0x53,0x53,
0x0a,0x80,0x3b,0x40,0x1c,0x80,0x53,0x40,0x1c,0x90,0x54,0x31,0x24,0x90,0x3e,0x52,
0x22,0x80,0x3e,0x40,0x00,0x90,0x53,0x50,0x10,0x80,0x54,0x40,0x28,0x90,0x52,0x3c,
0x0a,0x80,0x53,0x40,0x0e,0x90,0x41,0x3c,0x1a,0x80,0x52,0x40,0x0c,0x80,0x41,0x40,
0x00,0x90,0x51,0x3b,0x2a,0x80,0x51,0x40,0x2c,0x90,0x50,0x46,0x06,0x90,0x45,0x4a,
0x0c,0x90,0x40,0x39,0x02,0x90,0x3c,0x2a,0x16,0x80,0x45,0x40,0x0a,0x80,0x40,0x40,
0x00,0x90,0x51,0x3f,0x0a,0x80,0x50,0x40,0x06,0x80,0x3c,0x40,0x2a,0x90,0x52,0x3e,
0x12,0x80,0x51,0x40,0x0c,0x80,0x52,0x40,0x1a,0x90,0x53,0x5d,0x50,0x90,0x54,0x42,
0x06,0x80,0x53,0x40,0x00,0x90,0x34,0x41,0x24,0x80,0x34,0x40,0x02,0x90,0x55,0x39,
0x10,0x80,0x54,0x40,0x12,0x80,0x55,0x40,0x18,0x90,0x56,0x45,0x2e,0x80,0x56,0x40,
0x12,0x90,0x57,0x46,0x32,0x80,0x57,0x40,0x1e,0x90,0x44,0x32,0x06,0x90,0x3e,0x2e,
0x02,0x90,0x58,0x3f,0x00,0x90,0x40,0x1f,0x24,0x80,0x58,0x40,0x08,0x80,0x3e,0x40,
0x00,0x80,0x44,0x40,0x04,0x80,0x40,0x40,0x08,0x90,0x59,0x47,0x42,0x90,0x58,0x36,
0x08,0x80,0x59,0x40,0x36,0x90,0x57,0x43,0x0e,0x80,0x58,0x40,0x1e,0x80,0x57,0x40,
0x14,0x90,0x58,0x47,0x28,0x80,0x58,0x40,0x1c,0x90,0x59,0x43,0x2c,0x80,0x59,0x40,
0x02,0x90,0x58,0x31,0x30,0x80,0x58,0x40,0x06,0x90,0x57,0x45,0x22,0x80,0x57,0x40,
0x2c,0x90,0x58,0x30,0x00,0x90,0x45,0x27,0x06,0x90,0x3c,0x2f,0x04,0x90,0x40,0x2e,
0x26,0x80,0x58,0x40,0x02,0x80,0x40,0x40,0x02,0x80,0x3c,0x40,0x04,0x80,0x45,0x40,
0x38,0xb0,0x40,0x7f,0x20,0x90,0x5c,0x2f,0x40,0x90,0x5d,0x35,0x02,0xb0,0x40,0x00,
0x02,0x80,0x5c,0x40,0x28,0x90,0x5e,0x3e,0x08,0x90,0x51,0x37,0x02,0x80,0x5d,0x40,
0x06,0x90,0x48,0x34,0x12,0x80,0x5e,0x40,0x1c,0x80,0x51,0x40,0x04,0x90,0x5f,0x3c,
0x02,0x80,0x48,0x40,0x32,0x80,0x5f,0x40,0x06,0x90,0x60,0x45,0x16,0x90,0x45,0x31,
0x1c,0x80,0x60,0x40,0x08,0x90,0x61,0x24,0x08,0x80,0x45,0x40,0x28,0x80,0x61,0x40,
0x08,0x90,0x62,0x48,0x14,0x90,0x4a,0x48,0x06,0x90,0x41,0x48,0x18,0x80,0x4a,0x40,
0x02,0x90,0x61,0x29,0x0c,0x80,0x41,0x40,0x28,0x80,0x62,0x40,0x1a,0x90,0x60,0x36,
0x0a,0x90,0x47,0x4f,0x0c,0x80,0x61,0x40,0x10,0x80,0x60,0x40,0x06,0x80,0x47,0x40,
0x06,0x90,0x5f,0x30,0x28,0x80,0x5f,0x40,0x1a,0x90,0x60,0x25,0x04,0x90,0x4a,0x54,
0x02,0x90,0x41,0x43,0x1e,0x80,0x41,0x40,0x00,0x80,0x4a,0x40,0x26,0x90,0x5f,0x25,
0x0c,0x80,0x60,0x40,0x20,0x90,0x5e,0x38,0x08,0x80,0x5f,0x40,0x00,0x90,0x4d,0x5d,
0x0c,0x90,0x45,0x3b,0x16,0x80,0x5e,0x40,0x0a,0x80,0x4d,0x40,0x06,0x80,0x45,0x40,
0x00,0x90,0x5d,0x3c,0x32,0x80,0x5d,0x40,0x1c,0x90,0x51,0x5b,0x0c,0x90,0x48,0x4a,
0x00,0x90,0x5c,0x3e,0x2c,0x80,0x48,0x40,0x04,0x80,0x51,0x40,0x08,0x90,0x5d,0x41,
0x14,0x80,0x5c,0x40,0x22,0x90,0x5e,0x3d,0x12,0x80,0x5d,0x40,0x0e,0x80,0x5e,0x40,
0x18,0x90,0x5f,0x3d,0x38,0x80,0x5f,0x40,0x0c,0x90,0x60,0x4b,0x06,0x90,0x40,0x48,
0x20,0x80,0x40,0x40,0x16,0x90,0x61,0x24,0x04,0x80,0x60,0x40,0x28,0x80,0x61,0x40,
0x08,0x90,0x62,0x4a,0x22,0x80,0x62,0x40,0x14,0x90,0x63,0x41,0x22,0x80,0x63,0x40,
0x2a,0x90,0x50,0x46,0x08,0x90,0x64,0x45,0x16,0x90,0x4a,0x22,0x00,0x90,0x4c,0x1b,
0x0a,0x80,0x64,0x40,0x06,0x80,0x50,0x40,0x1e,0x90,0x65,0x3c,0x08,0x80,0x4a,0x40,
0x04,0x80,0x4c,0x40,0x30,0x80,0x65,0x40,0x08,0x90,0x64,0x34,0x2e,0x80,0x64,0x40,
0x00,0x90,0x63,0x42,0x20,0x80,0x63,0x40,0x1c,0x90,0x64,0x44,0x3a,0x80,0x64,0x40,
0x12,0x90,0x66,0x4b,0x3a,0x90,0x67,0x2c,0x04,0x80,0x66,0x40,0x36,0x90,0x68,0x39,
0x28,0x80,0x67,0x40,0x0a,0x80,0x68,0x40,0x0e,0x90,0x51,0x34,0x08,0x90,0x69,0x4f,
0x04,0x90,0x48,0x25,0x06,0x90,0x4c,0x29,0x14,0x80,0x51,0x40,0x14,0x80,0x4c,0x40,
0x00,0xb0,0x40,0x7f,0x02,0x80,0x48,0x40,0x20,0x90,0x68,0x30,0x1c,0x80,0x69,0x40,
0x0a,0xb0,0x40,0x00,0x04,0x90,0x67,0x36,0x24,0x80,0x68,0x40,0x10,0x80,0x67,0x40,
0x10,0x90,0x66,0x3c,0x24,0x80,0x66,0x40,0x08,0x90,0x46,0x30,0x0e,0x90,0x43,0x30,
0x0e,0x90,0x3d,0x27,0x08,0x90,0x67,0x30,0x14,0x80,0x46,0x40,0x04,0x80,0x43,0x40,
0x10,0x80,0x3d,0x40,0x10,0x80,0x67,0x40,0x04,0x90,0x66,0x30,0x3c,0x90,0x65,0x34,
0x20,0x80,0x66,0x40,0x08,0x80,0x65,0x40,0x1a,0x90,0x64,0x27,0x28,0x80,0x64,0x40,
0x0c,0x90,0x45,0x2a,0x10,0x90,0x3e,0x22,0x02,0x90,0x65,0x27,0x06,0x90,0x41,0x1b,
0x24,0x80,0x45,0x40,0x14,0x80,0x3e,0x40,0x02,0x80,0x41,0x40,0x04,0x80,0x65,0x40,
0x06,0x90,0x64,0x1a,0x2e,0x90,0x63,0x3f,0x12,0x80,0x64,0x40,0x0e,0x80,0x63,0x40,
0x24,0x90,0x62,0x36,0x2a,0x80,0x62,0x40,0x0a,0x90,0x61,0x2f,0x44,0x90,0x60,0x3f,
0x1a,0x80,0x61,0x40,0x08,0x80,0x60,0x40,0x18,0x90,0x5f,0x34,0x40,0x90,0x5e,0x36,
0x08,0x80,0x5f,0x40,0x36,0x90,0x5d,0x3b,0x02,0x90,0x45,0x25,0x10,0x90,0x3c,0x23,
0x00,0x90,0x39,0x29,0x00,0x90,0x40,0x2b,0x18,0x80,0x5e,0x40,0x0a,0x80,0x45,0x40,
0x08,0x80,0x40,0x40,0x04,0x90,0x5c,0x40,0x04,0x80,0x39,0x40,0x00,0x80,0x3c,0x40,
0x20,0x80,0x5d,0x40,0x04,0x80,0x5c,0x40,0x14,0x90,0x5b,0x30,0x30,0x80,0x5b,0x40,
0x20,0x90,0x5a,0x24,0x30,0x90,0x3d,0x2f,0x04,0x90,0x5b,0x3b,0x02,0x80,0x5a,0x40,
0x08,0x90,0x3a,0x23,0x00,0x90,0x37,0x36,0x2a,0x80,0x3d,0x40,0x06,0x80,0x3a,0x40,
0x02,0x80,0x37,0x40,0x08,0x90,0x5a,0x2e,0x20,0x80,0x5b,0x40,0x28,0x90,0x59,0x41,
0x2c,0x80,0x59,0x40,0x00,0x80,0x5a,0x40,0x14,0x90,0x58,0x30,0x2a,0x80,0x58,0x40,
0x08,0x90,0x39,0x35,0x02,0x90,0x59,0x42,0x02,0x90,0x3e,0x30,0x02,0x90,0x35,0x3b,
0x22,0x80,0x39,0x40,0x06,0x80,0x3e,0x40,0x08,0x80,0x35,0x40,0x0c,0x90,0x58,0x29,
0x28,0x80,0x59,0x40,0x0e,0x90,0x57,0x44,0x2e,0x80,0x58,0x40,0x06,0x80,0x57,0x40,
0x12,0x90,0x56,0x35,0x2e,0x80,0x56,0x40,0x06,0x90,0x55,0x43,0x00,0x90,0x2d,0x28,
0x32,0x80,0x2d,0x40,0x12,0x90,0x54,0x4d,0x20,0x80,0x55,0x40,0x02,0x80,0x54,0x40,
0x12,0x90,0x53,0x59,0x3e,0x80,0x53,0x40,0x00,0x90,0x52,0x34,0x36,0x90,0x51,0x4f,
0x0c,0x80,0x52,0x40,0x04,0x90,0x3c,0x33,0x2a,0x80,0x3c,0x40,0x02,0x80,0x51,0x40,
0x04,0x90,0x52,0x42,0x02,0xb0,0x40,0x7f,0x3e,0x90,0x51,0x35,0x30,0x90,0x50,0x45,
0x06,0x80,0x52,0x40,0x02,0x80,0x51,0x40,0x20,0x80,0x50,0x40,0x20,0x90,0x44,0x39,
0x00,0x90,0x51,0x39,0x00,0x90,0x45,0x2f,0x26,0x80,0x51,0x40,0x00,0x80,0x44,0x40,
0x08,0x80,0x45,0x40,0x0c,0x90,0x52,0x30,0x06,0x90,0x46,0x46,0x30,0x90,0x45,0x29,
0x00,0x90,0x44,0x39,0x00,0x90,0x51,0x39,0x18,0x80,0x46,0x40,0x00,0x80,0x52,0x40,
0x0e,0x80,0x44,0x40,0x0a,0x90,0x50,0x52,0x04,0x90,0x46,0x46,0x1e,0x80,0x45,0x40,
0x02,0x80,0x51,0x40,0x16,0x80,0x50,0x40,0x06,0xb0,0x40,0x00,0x0c,0x80,0x46,0x40,
0x02,0x90,0x51,0x59,0x08,0x90,0x45,0x49,0x00,0x90,0x44,0x50,0x26,0x80,0x44,0x40,
0x00,0x80,0x45,0x40,0x2c,0x80,0x51,0x40,0x1c,0x90,0x52,0x44,0x06,0x90,0x45,0x2a,
0x0a,0x90,0x43,0x44,0x24,0x80,0x43,0x40,0x02,0x80,0x52,0x40,0x08,0x80,0x45,0x40,
0x00,0x90,0x53,0x55,0x2a,0x80,0x53,0x40,0x12,0x90,0x46,0x42,0x06,0x90,0x54,0x53,
0x02,0x90,0x42,0x32,0x28,0x80,0x42,0x40,0x0e,0x90,0x55,0x3e,0x0c,0x80,0x46,0x40,
0x10,0x80,0x54,0x40,0x06,0x80,0x55,0x40,0x12,0x90,0x56,0x53,0x08,0x90,0x47,0x4b,
0x02,0x90,0x41,0x23,0x1a,0x80,0x56,0x40,0x0a,0x80,0x47,0x40,0x0e,0x80,0x41,0x40,
0x0a,0x90,0x57,0x43,0x3e,0x80,0x57,0x40,0x00,0x90,0x48,0x52,0x06,0x90,0x58,0x47,
0x00,0x90,0x45,0x3d,0x06,0x90,0x40,0x46,0x10,0x80,0x48,0x40,0x10,0x80,0x40,0x40,
0x00,0x80,0x45,0x40,0x02,0x80,0x58,0x40,0x0a,0x90,0x59,0x44,0x3c,0xb0,0x40,0x7f,
0x10,0x90,0x58,0x36,0x0e,0x80,0x59,0x40,0x26,0x80,0x58,0x40,0x02,0x90,0x57,0x36,
0x34,0x80,0x57,0x40,0x06,0x90,0x58,0x19,0x08,0x90,0x4b,0x28,0x00,0x90,0x4c,0x2d,
0x24,0x80,0x58,0x40,0x04,0x80,0x4c,0x40,0x06,0x90,0x59,0x27,0x00,0x90,0x4d,0x37,
0x04,0x80,0x4b,0x40,0x3a,0x90,0x4c,0x28,0x02,0x90,0x4b,0x2e,0x0a,0x80,0x4d,0x40,
0x00,0x90,0x58,0x3b,0x18,0x80,0x59,0x40,0x1e,0x80,0x58,0x40,0x02,0x90,0x4d,0x37,
0x00,0x90,0x57,0x49,0x0c,0x80,0x4c,0x40,0x12,0x80,0x4b,0x40,0x04,0x80,0x57,0x40,
0x14,0x90,0x58,0x4f,0x02,0x90,0x4c,0x28,0x00,0x90,0x4b,0x2e,0x0c,0xb0,0x40,0x00,
0x04,0x80,0x4d,0x40,0x40,0x80,0x4c,0x40,0x06,0x80,0x58,0x40,0x0a,0x80,0x4b,0x40,
0x12,0x90,0x57,0x4a,0x08,0x90,0x4e,0x4f,0x02,0x90,0x4a,0x2e,0x1e,0x80,0x4e,0x40,
0x02,0x80,0x4a,0x40,0x1c,0x80,0x57,0x40,0x0a,0x90,0x58,0x3e,0x30,0x80,0x58,0x40,
0x10,0x90,0x59,0x46,0x02,0x90,0x4f,0x4a,0x04,0x90,0x48,0x38,0x1e,0x80,0x4f,0x40,
0x0a,0x80,0x48,0x40,0x00,0x80,0x59,0x40,0x02,0x90,0x5a,0x34,0x36,0x80,0x5a,0x40,
0x08,0x90,0x5b,0x40,0x10,0x90,0x47,0x55,0x00,0x90,0x50,0x49,0x1e,0x80,0x47,0x40,
0x00,0x80,0x5b,0x40,0x06,0x80,0x50,0x40,0x0a,0x90,0x5c,0x44,0x24,0x80,0x5c,0x40,
0x1e,0x90,0x5d,0x62,0x06,0x90,0x51,0x59,0x08,0x90,0x4c,0x20,0x00,0x90,0x45,0x2d,
0x02,0x90,0x48,0x39,0x10,0x80,0x51,0x40,0x00,0x80,0x5d,0x40,0x24,0x80,0x48,0x40,
0x0a,0x80,0x45,0x40,0x02,0x80,0x4c,0x40,0x0e,0xb0,0x40,0x7f,0x4a,0xb0,0x40,0x00,
0x56,0x90,0x4c,0x49,0x36,0x80,0x4c,0x40,0x06,0x90,0x4d,0x3e,0x32,0x80,0x4d,0x40,
0x0a,0x90,0x4e,0x35,0x24,0x80,0x4e,0x40,0x00,0x90,0x39,0x24,0x10,0x90,0x4f,0x50,
0x1c,0x90,0x40,0x22,0x06,0x80,0x39,0x40,0x24,0x90,0x50,0x43,0x02,0x80,0x40,0x40,
0x0a,0x90,0x48,0x35,0x02,0x80,0x4f,0x40,0x2a,0x80,0x48,0x40,0x00,0x90,0x51,0x45,
0x26,0x80,0x50,0x40,0x1c,0x80,0x51,0x40,0x00,0x90,0x52,0x43,0x32,0x80,0x52,0x40,
0x02,0x90,0x53,0x59,0x32,0x80,0x53,0x40,0x0e,0x90,0x49,0x33,0x00,0x90,0x44,0x20,
0x04,0x90,0x54,0x4f,0x02,0x90,0x41,0x19,0x2a,0x80,0x49,0x40,0x08,0x80,0x44,0x40,
0x04,0x90,0x55,0x37,0x02,0x80,0x41,0x40,0x00,0x80,0x54,0x40,0x20,0x80,0x55,0x40,
0x1c,0x90,0x56,0x3e,0x26,0x80,0x56,0x40,0x18,0x90,0x57,0x36,0x22,0x80,0x57,0x40,
0x20,0x90,0x58,0x42,0x04,0x90,0x4d,0x32,0x02,0x90,0x45,0x27,0x26,0x80,0x4d,0x40,
0x04,0x80,0x58,0x40,0x06,0x80,0x45,0x40,0x18,0x90,0x59,0x39,0x32,0x80,0x59,0x40,
0x0c,0x90,0x5a,0x39,0x2e,0x90,0x5b,0x39,0x02,0x80,0x5a,0x40,0x30,0x80,0x5b,0x40,
0x04,0x90,0x50,0x34,0x0a,0x90,0x5c,0x35,0x04,0x90,0x4b,0x29,0x1c,0x80,0x50,0x40,
0x0e,0x80,0x4b,0x40,0x14,0x90,0x5d,0x2a,0x02,0x80,0x5c,0x40,0x28,0x90,0x5e,0x3a,
0x08,0x80,0x5d,0x40,0x1a,0x80,0x5e,0x40,0x1a,0x90,0x5f,0x30,0x32,0x80,0x5f,0x40,
0x02,0x90,0x4c,0x36,0x04,0x90,0x54,0x40,0x0a,0x90,0x60,0x3b,0x1a,0x80,0x4c,0x40,
0x08,0x80,0x54,0x40,0x0a,0x80,0x60,0x40,0x06,0x90,0x61,0x30,0x22,0x80,0x61,0x40,
0x16,0x90,0x62,0x4e,0x22,0x80,0x62,0x40,0x22,0x90,0x63,0x2b,0x28,0x80,0x63,0x40,
0x16,0x90,0x58,0x33,0x06,0x90,0x64,0x36,0x14,0x90,0x50,0x15,0x0e,0x80,0x58,0x40,
0x02,0x80,0x64,0x40,0x1e,0x90,0x66,0x3e,0x00,0x90,0x56,0x30,0x0e,0x80,0x50,0x40,
0x24,0x80,0x56,0x40,0x0c,0x80,0x66,0x40,0x0a,0x90,0x67,0x29,0x00,0x90,0x54,0x2a,
0x2e,0x80,0x54,0x40,0x06,0x90,0x68,0x39,0x04,0x80,0x67,0x40,0x04,0x90,0x53,0x30,
0x2c,0x80,0x53,0x40,0x02,0x80,0x68,0x40,0x10,0x90,0x69,0x54,0x00,0x90,0x58,0x11,
0x04,0x90,0x60,0x2f,0x06,0x90,0x51,0x3a,0x12,0x80,0x69,0x40,0x12,0x80,0x60,0x40,
0x06,0x80,0x51,0x40,0x00,0x80,0x58,0x40,0x84,0x00,0x90,0x51,0x3b,0x02,0x90,0x39,
0x14,0x00,0x90,0x48,0x2f,0x00,0x90,0x4c,0x2c,0x00,0x90,0x40,0x27,0x00,0x90,0x3c,
0x2b,0x02,0x90,0x45,0x2d,0x02,0x90,0x34,0x29,0x32,0xb0,0x40,0x7f,0x54,0x80,0x40,
0x40,0x02,0x80,0x3c,0x40,0x10,0x80,0x45,0x40,0x14,0x80,0x51,0x40,0x06,0x80,0x39,
0x40,0x12,0x80,0x4c,0x40,0x00,0x80,0x48,0x40,0x0e,0x80,0x34,0x40,0x83,0x7c,0x90,
0x39,0x2d,0x02,0x90,0x21,0x2e,0x44,0x80,0x21,0x40,0x08,0x80,0x39,0x40,0x66,0xb0,
0x40,0x00,0x92,0x02,0xb0,0x40,0x00,0x81,0x40,0xff,0x2f,0x00,0x4d,0x54,0x72,0x6b,
0x00,0x00,0x00,0x1e,0x00,0xff,0x03,0x08,0x47,0x53,0x2f,0x52,0x45,0x53,0x45,0x54,
0x00,0xf0,0x0a,0x41,0x10,0x42,0x12,0x40,0x00,0x7f,0x00,0x41,0xf7,0xb0,0x00,0xff,
0x2f,0x00,
};
